SplineFontDB: 3.2
FontName: Derani
FullName: Derani
FamilyName: Derani
Weight: Regular
Copyright: Copyright Miles Forster 2022
Version: 1.0
ItalicAngle: 0
UnderlinePosition: 81
UnderlineWidth: 54
Ascent: 800
Descent: 200
InvalidEm: 0
sfntRevision: 0x00010000
LayerCount: 2
Layer: 0 1 "Back" 1
Layer: 1 1 "Fore" 0
XUID: [1021 618 -23699139 8853324]
StyleMap: 0x0040
FSType: 4
OS2Version: 2
OS2_WeightWidthSlopeOnly: 0
OS2_UseTypoMetrics: 1
CreationTime: 1670694376
ModificationTime: 1704245717
PfmFamily: 81
TTFWeight: 400
TTFWidth: 5
LineGap: 0
VLineGap: 0
Panose: 0 0 4 0 0 0 0 0 0 0
OS2TypoAscent: 1283
OS2TypoAOffset: 0
OS2TypoDescent: -513
OS2TypoDOffset: 0
OS2TypoLinegap: 0
OS2WinAscent: 1283
OS2WinAOffset: 0
OS2WinDescent: 513
OS2WinDOffset: 0
HheadAscent: 1283
HheadAOffset: 0
HheadDescent: -513
HheadDOffset: 0
OS2SubXSize: 550
OS2SubYSize: 550
OS2SubXOff: 0
OS2SubYOff: -256
OS2SupXSize: 550
OS2SupYSize: 550
OS2SupXOff: 0
OS2SupYOff: 550
OS2StrikeYSize: 55
OS2StrikeYPos: 220
OS2CapHeight: 770
OS2XHeight: 513
OS2Vendor: 'FSTR'
OS2CodePages: 200101ff.cdff0000
OS2UnicodeRanges: 00000001.10000000.00000000.00000000
Lookup: 1 0 0 "HiatusToHiatusDiphthong" { "HiatusToHiatusDiphthong"  } ['vvfl' ('DFLT' <'dflt' > 'latn' <'dflt' > ) ]
Lookup: 2 0 0 "DeleteDiphthong" { "DeleteDiphthong"  } ['delt' ('DFLT' <'dflt' > 'latn' <'dflt' > ) ]
Lookup: 1 0 0 "WithCartouche" { "WithCartouche"  } ['cart' ('DFLT' <'dflt' > 'latn' <'dflt' > ) ]
Lookup: 1 0 0 "TrimCartouche" { "TrimCartouche" ("_end") } ['cart' ('DFLT' <'dflt' > 'latn' <'dflt' > ) ]
Lookup: 5 0 0 "Form hiatus-diphthong ligatures" { "Form hiatus-diphthong ligatures"  } ['calt' ('DFLT' <'dflt' > 'latn' <'dflt' > ) ]
Lookup: 5 8 0 "Connect cartouche start" { "Connect cartouche start"  } ['rclt' ('DFLT' <'dflt' > 'latn' <'dflt' > ) ]
Lookup: 6 8 0 "Connect cartouche medials" { "Connect cartouche medials"  } ['rclt' ('DFLT' <'dflt' > 'latn' <'dflt' > ) ]

StartChar: other_stop
Encoding: 1 988886 1
Width: 590
VWidth: 1100
GlyphClass: 2
Flags: W
LayerCount: 2
Fore
SplineSet
70 128 m 1,0,-1
 158 226 l 1,1,-1
 247 128 l 1,2,-1
 158 30 l 1,3,-1
 70 128 l 1,0,-1
70 385 m 1,4,-1
 158 483 l 1,5,-1
 247 385 l 1,6,-1
 158 286 l 1,7,-1
 70 385 l 1,4,-1
409 1006 m 1,8,-1
 485 1006 l 1,9,-1
 485 -256 l 2,10,11
 485 -354 485 -354 422 -425 c 0,12,13
 393 -458 393 -458 359 -474 c 1,14,15
 367 -461 367 -461 373 -446 c 0,16,17
 409 -367 409 -367 409 -256 c 2,18,19
 409 -256 409 -256 409 1006 c 1,8,-1
419 1243 m 1,20,21
 412 1231 412 1231 405 1216 c 0,22,23
 372 1144 372 1144 369 1046 c 1,24,25
 369 1046 369 1046 295 1046 c 1,26,27
 301 1131 301 1131 357 1195 c 0,28,29
 386 1226 386 1226 419 1243 c 1,20,21
EndSplineSet
EndChar

StartChar: quote
Encoding: 2 988883 2
Width: 461
VWidth: 1100
GlyphClass: 2
Flags: W
LayerCount: 2
Fore
SplineSet
142 128 m 1,0,-1
 231 226 l 1,1,-1
 319 128 l 1,2,-1
 231 30 l 1,3,-1
 142 128 l 1,0,-1
142 385 m 1,4,-1
 231 483 l 1,5,-1
 319 385 l 1,6,-1
 231 286 l 1,7,-1
 142 385 l 1,4,-1
EndSplineSet
Substitution2: "WithCartouche" quote_c
EndChar

StartChar: null
Encoding: 3 988890 3
Width: 807
VWidth: 1100
GlyphClass: 2
Flags: W
LayerCount: 2
Fore
SplineSet
301 67 m 0,0,1
 333 139 333 139 337 236 c 1,2,3
 337 236 337 236 411 236 c 1,4,5
 405 151 405 151 350 88 c 0,6,7
 321 56 321 56 287 39 c 1,8,9
 294 52 294 52 301 67 c 0,0,1
284 425 m 0,10,11
 313 457 313 457 347 474 c 1,12,13
 340 462 340 462 333 446 c 0,14,15
 301 374 301 374 297 276 c 1,16,17
 297 276 297 276 223 276 c 1,18,19
 228 362 228 362 284 425 c 0,10,11
597 898 m 2,20,21
 597 959 597 959 558 1002 c 256,22,23
 519 1046 519 1046 463 1046 c 0,24,25
 462 1046 462 1046 461 1046 c 2,26,27
 461 1046 461 1046 231 1046 c 2,28,29
 130 1046 130 1046 58 1006 c 0,30,31
 47 1000 47 1000 37 993 c 1,32,33
 53 1033 53 1033 83 1067 c 0,34,35
 144 1135 144 1135 231 1135 c 2,36,37
 231 1135 231 1135 461 1135 c 2,38,39
 548 1135 548 1135 610 1067 c 256,40,41
 672 999 672 999 672 901 c 0,42,43
 672 900 672 900 672 898 c 2,44,45
 672 898 672 898 672 -256 c 2,46,47
 672 -354 672 -354 610 -425 c 0,48,49
 581 -457 581 -457 547 -474 c 1,50,51
 554 -462 554 -462 561 -446 c 0,52,53
 597 -367 597 -367 597 -256 c 2,54,55
 597 -256 597 -256 597 898 c 2,20,21
EndSplineSet
EndChar

StartChar: diphthong
Encoding: 4 988878 4
Width: 0
VWidth: 1100
GlyphClass: 4
Flags: W
AnchorPoint: "vv" 462 -161 mark 0
LayerCount: 2
Fore
SplineSet
673 -256 m 2,0,1
 673 -354 673 -354 610 -425 c 0,2,3
 581 -457 581 -457 547 -474 c 1,4,5
 554 -461 554 -461 561 -446 c 0,6,7
 597 -367 597 -367 597 -256 c 2,8,9
 597 -256 597 -256 597 -236 c 1,10,-1
 251 -236 l 1,11,-1
 251 -148 l 1,12,-1
 673 -148 l 1,13,-1
 673 -256 l 2,0,1
EndSplineSet
MultipleSubs2: "DeleteDiphthong" 
EndChar

StartChar: subordination
Encoding: 5 988884 5
Width: 1154
VWidth: 1100
GlyphClass: 2
Flags: W
LayerCount: 2
Fore
SplineSet
20 20 m 1,0,-1
 20 108 l 1,1,-1
 1135 108 l 1,2,-1
 1135 0 l 2,3,4
 1135 -98 1135 -98 1072 -169 c 0,5,6
 1043 -201 1043 -201 1010 -217 c 1,7,8
 1017 -205 1017 -205 1024 -190 c 0,9,10
 1059 -113 1059 -113 1059 -6 c 0,11,12
 1059 -3 1059 -3 1059 20 c 1,13,14
 1059 20 1059 20 904 20 c 1,15,-1
 904 0 l 2,16,17
 904 -98 904 -98 841 -169 c 0,18,19
 812 -201 812 -201 779 -217 c 1,20,21
 786 -205 786 -205 793 -190 c 0,22,23
 828 -113 828 -113 828 -6 c 0,24,25
 828 -3 828 -3 828 20 c 1,26,27
 828 20 828 20 673 20 c 1,28,-1
 673 0 l 2,29,30
 673 -98 673 -98 610 -169 c 0,31,32
 581 -201 581 -201 547 -217 c 1,33,34
 554 -205 554 -205 561 -190 c 0,35,36
 597 -111 597 -111 597 0 c 2,37,38
 597 0 597 0 597 20 c 1,39,-1
 442 20 l 1,40,-1
 442 0 l 2,41,42
 442 -98 442 -98 379 -169 c 0,43,44
 350 -201 350 -201 316 -218 c 1,45,46
 324 -206 324 -206 330 -190 c 0,47,48
 366 -111 366 -111 366 0 c 2,49,50
 366 0 366 0 366 20 c 1,51,-1
 211 20 l 1,52,-1
 211 0 l 2,53,54
 211 -98 211 -98 148 -169 c 0,55,56
 120 -200 120 -200 86 -217 c 1,57,58
 93 -205 93 -205 100 -190 c 0,59,60
 135 -113 135 -113 135 -6 c 0,61,62
 135 -3 135 -3 135 20 c 1,63,64
 135 20 135 20 20 20 c 1,0,-1
EndSplineSet
EndChar

StartChar: oaomo
Encoding: 6 988869 6
Width: 288
VWidth: 1100
GlyphClass: 2
Flags: W
LayerCount: 2
Fore
SplineSet
178 215 m 256,0,1
 163 199 163 199 144 199 c 256,2,3
 124 199 124 199 110 216 c 256,4,5
 95 232 95 232 95 256 c 256,6,7
 95 280 95 280 110 297 c 256,8,9
 125 314 125 314 144 314 c 256,10,11
 164 314 164 314 178 297 c 256,12,13
 193 280 193 280 193 256 c 256,14,15
 193 231 193 231 178 215 c 256,0,1
EndSplineSet
Substitution2: "WithCartouche" oaomo_c
EndChar

StartChar: declarative_stop
Encoding: 7 988885 7
Width: 590
VWidth: 1100
GlyphClass: 2
Flags: W
LayerCount: 2
Fore
SplineSet
70 256 m 1,0,-1
 158 355 l 1,1,-1
 247 256 l 1,2,-1
 158 158 l 1,3,-1
 70 256 l 1,0,-1
409 1006 m 1,4,-1
 485 1006 l 1,5,-1
 485 -256 l 2,6,7
 485 -354 485 -354 422 -425 c 0,8,9
 393 -458 393 -458 359 -474 c 1,10,11
 367 -461 367 -461 373 -446 c 0,12,13
 409 -367 409 -367 409 -256 c 2,14,15
 409 -256 409 -256 409 1006 c 1,4,-1
419 1243 m 1,16,17
 412 1231 412 1231 405 1216 c 0,18,19
 372 1144 372 1144 369 1046 c 1,20,21
 369 1046 369 1046 295 1046 c 1,22,23
 301 1131 301 1131 357 1195 c 0,24,25
 386 1226 386 1226 419 1243 c 1,16,17
EndSplineSet
EndChar

StartChar: rising
Encoding: 8 988874 8
Width: 0
VWidth: 1100
GlyphClass: 4
Flags: W
AnchorPoint: "tone" 206 561 mark 0
LayerCount: 2
Fore
SplineSet
78 790 m 1,0,-1
 326 928 l 1,1,-1
 326 846 l 1,2,-1
 78 708 l 1,3,-1
 78 790 l 1,0,-1
EndSplineSet
EndChar

StartChar: prefix
Encoding: 9 988882 9
Width: 288
VWidth: 1100
GlyphClass: 2
Flags: W
LayerCount: 2
Fore
SplineSet
178 87 m 256,0,1
 163 71 163 71 144 71 c 256,2,3
 124 71 124 71 110 88 c 256,4,5
 95 104 95 104 95 128 c 256,6,7
 95 152 95 152 109 169 c 256,8,9
 123 185 123 185 142 185 c 0,10,11
 143 185 143 185 143 185 c 2,12,13
 143 185 143 185 144 185 c 2,14,15
 164 185 164 185 178 170 c 0,16,17
 193 153 193 153 193 128 c 256,18,19
 193 103 193 103 178 87 c 256,0,1
178 343 m 0,20,21
 164 328 164 328 144 328 c 256,22,23
 124 328 124 328 110 343 c 0,24,25
 95 360 95 360 95 385 c 256,26,27
 95 409 95 409 110 426 c 256,28,29
 125 442 125 442 144 442 c 0,30,31
 164 442 164 442 178 425 c 256,32,33
 193 408 193 408 193 385 c 256,34,35
 193 361 193 361 178 343 c 0,20,21
EndSplineSet
Substitution2: "WithCartouche" prefix_c
EndChar

StartChar: interrogative_stop
Encoding: 10 988887 10
Width: 590
VWidth: 1100
GlyphClass: 2
Flags: W
LayerCount: 2
Fore
SplineSet
70 -1 m 1,0,-1
 158 98 l 1,1,-1
 247 0 l 1,2,-1
 158 -98 l 1,3,-1
 70 -1 l 1,0,-1
70 255 m 1,4,-1
 158 355 l 1,5,-1
 247 257 l 1,6,-1
 158 158 l 1,7,-1
 70 255 l 1,4,-1
69 513 m 1,8,-1
 158 611 l 1,9,-1
 247 513 l 1,10,-1
 158 415 l 1,11,-1
 69 513 l 1,8,-1
409 1006 m 1,12,-1
 485 1006 l 1,13,-1
 485 -256 l 2,14,15
 485 -354 485 -354 422 -425 c 0,16,17
 393 -458 393 -458 359 -474 c 1,18,19
 367 -461 367 -461 373 -446 c 0,20,21
 409 -367 409 -367 409 -256 c 2,22,23
 409 -256 409 -256 409 1006 c 1,12,-1
419 1243 m 1,24,25
 412 1231 412 1231 405 1216 c 0,26,27
 372 1144 372 1144 369 1046 c 1,28,29
 369 1046 369 1046 295 1046 c 1,30,31
 301 1131 301 1131 357 1195 c 0,32,33
 386 1226 386 1226 419 1243 c 1,24,25
EndSplineSet
EndChar

StartChar: cartouche_start
Encoding: 11 988888 11
Width: 201
VWidth: 1100
GlyphClass: 2
Flags: W
LayerCount: 2
Fore
SplineSet
413 1046 m 1,0,-1
 231 1046 l 2,1,2
 131 1046 131 1046 58 1007 c 0,3,4
 47 1001 47 1001 37 993 c 1,5,6
 53 1032 53 1032 83 1067 c 0,7,8
 136 1126 136 1126 203 1135 c 1,9,10
 203 1135 203 1135 413 1135 c 1,11,-1
 413 1046 l 1,0,-1
EndSplineSet
EndChar

StartChar: low_glottal
Encoding: 12 988875 12
Width: 0
VWidth: 1100
GlyphClass: 4
Flags: W
AnchorPoint: "tone" 231 513 mark 0
LayerCount: 2
Fore
SplineSet
346 942 m 2,0,1
 447 942 447 942 520 982 c 0,2,3
 531 988 531 988 540 995 c 1,4,5
 525 956 525 956 495 922 c 0,6,7
 433 854 433 854 346 854 c 2,8,9
 346 854 346 854 115 854 c 2,10,11
 58 854 58 854 19 809 c 0,12,13
 -20 766 -20 766 -20 706 c 0,14,15
 -20 596 -20 596 16 516 c 0,16,17
 23 501 23 501 30 488 c 1,18,19
 -4 505 -4 505 -33 537 c 0,20,21
 -95 605 -95 605 -95 703 c 0,22,23
 -95 704 -95 704 -95 706 c 2,24,25
 -95 706 -95 706 -95 706 c 2,26,27
 -95 804 -95 804 -34 873 c 256,28,29
 27 942 27 942 115 942 c 2,30,31
 115 942 115 942 346 942 c 2,0,1
EndSplineSet
EndChar

StartChar: cartouche_end
Encoding: 13 988889 13
Width: 317
VWidth: 1100
GlyphClass: 2
Flags: W
LayerCount: 2
Fore
SplineSet
211 -256 m 2,0,1
 211 -354 211 -354 148 -425 c 0,2,3
 119 -457 119 -457 86 -473 c 1,4,5
 93 -461 93 -461 100 -446 c 0,6,7
 135 -369 135 -369 135 -262 c 0,8,9
 135 -259 135 -259 135 -256 c 2,10,11
 135 -256 135 -256 135 898 c 2,12,13
 135 959 135 959 96 1002 c 0,14,15
 58 1046 58 1046 2 1046 c 0,16,17
 1 1046 1 1046 -0 1046 c 2,18,19
 0 1046 -0 1046 -178 1046 c 1,20,-1
 -178 1135 l 1,21,-1
 0 1135 l 2,22,23
 87 1135 87 1135 148 1067 c 0,24,25
 211 998 211 998 211 898 c 2,26,27
 211 898 211 898 211 -256 c 2,0,1
EndSplineSet
EndChar

StartChar: bubue
Encoding: 14 988850 14
Width: 461
VWidth: 1100
GlyphClass: 2
Flags: W
AnchorPoint: "vv" 462 -161 basechar 0
AnchorPoint: "tone" 231 513 basechar 0
LayerCount: 2
Fore
SplineSet
379 88 m 0,0,1
 350 55 350 55 316 39 c 1,2,3
 324 52 324 52 330 67 c 0,4,5
 366 146 366 146 366 256 c 0,6,7
 366 317 366 317 327 360 c 0,8,9
 288 405 288 405 231 405 c 256,10,11
 174 405 174 405 134 360 c 0,12,13
 102 324 102 324 96 276 c 1,14,15
 96 276 96 276 21 276 c 1,16,17
 27 361 27 361 83 425 c 0,18,19
 145 493 145 493 231 493 c 256,20,21
 318 493 318 493 379 425 c 0,22,23
 442 356 442 356 442 256 c 256,24,25
 442 157 442 157 379 88 c 0,0,1
EndSplineSet
Substitution2: "WithCartouche" bubue_c
EndChar

StartChar: cecoa
Encoding: 15 988857 15
Width: 461
VWidth: 1100
GlyphClass: 2
Flags: W
AnchorPoint: "vv" 462 -161 basechar 0
AnchorPoint: "tone" 231 513 basechar 0
LayerCount: 2
Fore
SplineSet
231 108 m 0,0,1
 332 108 332 108 404 148 c 0,2,3
 415 154 415 154 425 161 c 1,4,5
 409 122 409 122 379 88 c 0,6,7
 318 20 318 20 231 20 c 256,8,9
 144 20 144 20 83 88 c 0,10,11
 20 157 20 157 20 256 c 256,12,13
 20 354 20 354 83 425 c 0,14,15
 138 486 138 486 211 492 c 1,16,17
 211 492 211 492 211 403 c 1,18,19
 167 396 167 396 134 360 c 0,20,21
 95 316 95 316 95 256 c 256,22,23
 95 195 95 195 134 153 c 0,24,25
 174 108 174 108 231 108 c 0,0,1
EndSplineSet
Substitution2: "WithCartouche" cecoa_c
EndChar

StartChar: dudeo
Encoding: 16 988854 16
Width: 461
VWidth: 1100
GlyphClass: 2
Flags: W
AnchorPoint: "tone" 231 513 basechar 0
LayerCount: 2
Fore
SplineSet
202 333 m 128,-1,1
 223 333 223 333 237 348 c 0,2,3
 251 363 251 363 251 384.5 c 128,-1,4
 251 406 251 406 237 421 c 0,5,6
 222 437 222 437 201.5 437 c 128,-1,7
 181 437 181 437 167 420 c 0,8,9
 153 405 153 405 153 384.5 c 128,-1,10
 153 364 153 364 167 348.5 c 128,-1,0
 181 333 181 333 202 333 c 128,-1,1
379 88 m 0,11,12
 318 20 318 20 231 20 c 128,-1,13
 144 20 144 20 82 88 c 0,14,15
 52 121 52 121 37 160 c 1,16,17
 46 154 46 154 57 148 c 0,18,19
 128 108 128 108 226 108 c 0,20,21
 229 108 229 108 231 108 c 0,22,23
 288 108 288 108 327 153 c 0,24,25
 366 198 366 198 366 256 c 0,26,27
 366 317 366 317 327 360 c 2,28,29
 327 360 327 360 302 388 c 1,30,-1
 293 352 l 2,31,32
 286 327 286 327 269 307 c 0,33,34
 241 276 241 276 202 276 c 128,-1,35
 163 276 163 276 135 307 c 0,36,37
 107 339 107 339 107 382 c 0,38,39
 107 383 107 383 107 385 c 2,40,41
 107 385 107 385 107 385 c 2,42,43
 107 430 107 430 135 462 c 0,44,45
 166 496 166 496 202 493 c 0,46,47
 214 491 214 491 226 490 c 2,48,49
 226 490 226 490 202 493 c 1,50,-1
 202 493 l 1,51,52
 326 483 326 483 379 425 c 0,53,54
 442 355 442 355 442 256.5 c 128,-1,55
 442 158 442 158 379 88 c 0,11,12
EndSplineSet
Substitution2: "WithCartouche" dudeo_c
EndChar

StartChar: fofuaq
Encoding: 17 988852 17
Width: 461
VWidth: 1100
GlyphClass: 2
Flags: W
AnchorPoint: "vv" 462 -161 basechar 0
AnchorPoint: "tone" 231 513 basechar 0
LayerCount: 2
Fore
SplineSet
366 -256 m 2,0,1
 366 -256 366 -256 366 256 c 2,2,3
 366 317 366 317 327 360 c 0,4,5
 288 405 288 405 231 405 c 256,6,7
 174 405 174 405 134 360 c 0,8,9
 102 324 102 324 96 276 c 1,10,11
 96 276 96 276 21 276 c 1,12,13
 27 361 27 361 83 425 c 0,14,15
 145 493 145 493 231 493 c 256,16,17
 318 493 318 493 379 425 c 0,18,19
 442 356 442 356 442 256 c 2,20,21
 442 256 442 256 442 -256 c 2,22,23
 442 -354 442 -354 379 -425 c 0,24,25
 350 -458 350 -458 316 -474 c 1,26,27
 324 -461 324 -461 330 -446 c 0,28,29
 366 -367 366 -367 366 -256 c 2,0,1
EndSplineSet
Substitution2: "WithCartouche" fofuaq_c
EndChar

StartChar: gugui
Encoding: 18 988867 18
Width: 605
VWidth: 1100
GlyphClass: 2
Flags: W
AnchorPoint: "vv" 577 -161 basechar 0
AnchorPoint: "tone" 231 513 basechar 0
LayerCount: 2
Fore
SplineSet
577 108 m 0,0,1
 621 108 621 108 657 137 c 1,2,3
 657 137 657 137 714 75 c 1,4,5
 689 52 689 52 659 38 c 0,6,7
 619 20 619 20 577 20 c 0,8,9
 490 20 490 20 429 88 c 0,10,11
 423 95 423 95 420 99 c 2,12,13
 420 99 420 99 405 120 c 1,14,-1
 389 100 l 1,15,-1
 379 88 l 1,16,17
 318 20 318 20 231 20 c 256,18,19
 144 20 144 20 83 88 c 0,20,21
 20 157 20 157 20 256 c 256,22,23
 20 354 20 354 83 425 c 0,24,25
 138 486 138 486 211 492 c 1,26,27
 211 492 211 492 211 403 c 1,28,29
 167 396 167 396 134 360 c 0,30,31
 95 316 95 316 95 256 c 256,32,33
 95 195 95 195 134 153 c 0,34,35
 174 108 174 108 231 108 c 256,36,37
 288 108 288 108 327 153 c 0,38,39
 359 188 359 188 365 236 c 1,40,41
 365 236 365 236 443 236 c 1,42,43
 449 188 449 188 481 153 c 0,44,45
 521 108 521 108 577 108 c 0,0,1
EndSplineSet
Substitution2: "WithCartouche" gugui_c
EndChar

StartChar: hehaq
Encoding: 19 988870 19
Width: 461
VWidth: 1100
GlyphClass: 2
Flags: W
AnchorPoint: "tone" 231 513 basechar 0
LayerCount: 2
Fore
SplineSet
251 20 m 1,0,-1
 251 108 l 1,1,-1
 366 108 l 1,2,-1
 366 256 l 2,3,4
 366 317 366 317 327 360 c 0,5,6
 288 405 288 405 231 405 c 256,7,8
 174 405 174 405 134 360 c 0,9,10
 102 324 102 324 96 276 c 1,11,12
 96 276 96 276 21 276 c 1,13,14
 27 361 27 361 83 425 c 0,15,16
 145 493 145 493 231 493 c 256,17,18
 318 493 318 493 379 425 c 0,19,20
 442 356 442 356 442 256 c 2,21,22
 442 256 442 256 442 108 c 1,23,-1
 693 108 l 2,24,25
 794 108 794 108 866 148 c 0,26,27
 877 154 877 154 887 161 c 1,28,29
 871 122 871 122 841 88 c 0,30,31
 779 20 779 20 693 20 c 2,32,33
 693 20 693 20 442 20 c 1,34,-1
 442 -256 l 2,35,36
 442 -354 442 -354 379 -425 c 0,37,38
 350 -458 350 -458 316 -474 c 1,39,40
 324 -461 324 -461 330 -446 c 0,41,42
 366 -367 366 -367 366 -256 c 2,43,44
 366 -256 366 -256 366 20 c 1,45,-1
 251 20 l 1,0,-1
EndSplineSet
Substitution2: "WithCartouche" hehaq_c
EndChar

StartChar: jujuo
Encoding: 20 988862 20
Width: 808
VWidth: 1100
GlyphClass: 2
Flags: W
CounterMasks: 1 70
AnchorPoint: "tone" 231 513 basechar 0
LayerCount: 2
Fore
SplineSet
577 405 m 256,0,1
 520 405 520 405 481 360 c 0,2,3
 449 324 449 324 443 276 c 1,4,5
 443 276 443 276 365 276 c 1,6,7
 359 324 359 324 327 360 c 0,8,9
 288 405 288 405 231 405 c 256,10,11
 174 405 174 405 134 360 c 0,12,13
 102 324 102 324 96 276 c 1,14,15
 96 276 96 276 21 276 c 1,16,17
 27 361 27 361 83 425 c 0,18,19
 145 493 145 493 231 493 c 256,20,21
 318 493 318 493 379 425 c 0,22,23
 385 418 385 418 388 414 c 2,24,25
 388 414 388 414 403 393 c 1,26,-1
 419 413 l 1,27,-1
 429 425 l 1,28,29
 491 493 491 493 578 493 c 256,30,31
 665 493 665 493 726 425 c 256,32,33
 788 357 788 357 788 259 c 0,34,35
 788 258 788 258 788 256 c 2,36,37
 788 256 788 256 788 256 c 2,38,39
 788 158 788 158 726 88 c 0,40,41
 697 56 697 56 663 39 c 1,42,43
 670 51 670 51 677 67 c 0,44,45
 713 146 713 146 713 256 c 0,46,47
 713 317 713 317 673 361 c 256,48,49
 634 405 634 405 577 405 c 256,0,1
EndSplineSet
Substitution2: "WithCartouche" jujuo_c
EndChar

StartChar: kikue
Encoding: 21 988868 21
Width: 461
VWidth: 1100
GlyphClass: 2
Flags: W
AnchorPoint: "tone" 231 513 basechar 0
LayerCount: 2
Fore
SplineSet
231 -314 m 256,0,1
 211 -314 211 -314 197 -297 c 256,2,3
 182 -280 182 -280 182 -256 c 256,4,5
 182 -232 182 -232 197 -215 c 256,6,7
 212 -199 212 -199 231 -199 c 0,8,9
 251 -199 251 -199 265 -216 c 256,10,11
 280 -232 280 -232 280 -256 c 256,12,13
 280 -280 280 -280 265 -297 c 256,14,15
 251 -314 251 -314 231 -314 c 256,0,1
231 108 m 0,16,17
 332 108 332 108 404 148 c 0,18,19
 415 154 415 154 425 161 c 1,20,21
 409 122 409 122 379 88 c 0,22,23
 318 20 318 20 231 20 c 256,24,25
 144 20 144 20 83 88 c 0,26,27
 20 157 20 157 20 256 c 256,28,29
 20 354 20 354 83 425 c 0,30,31
 138 486 138 486 211 492 c 1,32,33
 211 492 211 492 211 403 c 1,34,35
 167 396 167 396 134 360 c 0,36,37
 95 316 95 316 95 256 c 256,38,39
 95 195 95 195 134 153 c 0,40,41
 174 108 174 108 231 108 c 0,16,17
EndSplineSet
Substitution2: "WithCartouche" kikue_c
EndChar

StartChar: laoliq
Encoding: 22 988860 22
Width: 923
VWidth: 1100
GlyphClass: 2
Flags: W
AnchorPoint: "tone" 231 513 basechar 0
LayerCount: 2
Fore
SplineSet
528 -256 m 0,0,1
 528 -232 528 -232 543 -216 c 2,2,3
 543 -216 543 -216 544 -215 c 2,4,5
 558 -199 558 -199 578 -199 c 256,6,7
 597 -199 597 -199 612 -216 c 256,8,9
 627 -233 627 -233 627 -256 c 0,10,11
 627 -280 627 -280 612 -297 c 256,12,13
 597 -314 597 -314 577 -314 c 0,14,15
 557 -314 557 -314 543 -297 c 256,16,17
 529 -281 529 -281 528 -256 c 0,0,1
904 20 m 1,18,-1
 303 20 l 1,19,20
 318 39 318 39 330 67 c 0,21,22
 366 146 366 146 366 256 c 0,23,24
 366 317 366 317 327 360 c 0,25,26
 288 405 288 405 231 405 c 256,27,28
 174 405 174 405 134 360 c 0,29,30
 102 324 102 324 96 276 c 1,31,32
 96 276 96 276 21 276 c 1,33,34
 27 361 27 361 83 425 c 0,35,36
 145 493 145 493 231 493 c 256,37,38
 318 493 318 493 379 425 c 0,39,40
 442 356 442 356 442 256 c 0,41,42
 442 190 442 190 413 138 c 2,43,44
 413 138 413 138 397 108 c 1,45,-1
 828 108 l 1,46,-1
 828 256 l 2,47,48
 828 316 828 316 790 360 c 0,49,50
 750 405 750 405 693 405 c 0,51,52
 636 405 636 405 596 360 c 0,53,54
 564 324 564 324 558 276 c 1,55,56
 558 276 558 276 483 276 c 1,57,58
 489 361 489 361 545 425 c 0,59,60
 607 493 607 493 693 493 c 256,61,62
 780 493 780 493 841 425 c 0,63,64
 904 356 904 356 904 256 c 2,65,66
 904 256 904 256 904 20 c 1,18,-1
EndSplineSet
Substitution2: "WithCartouche" laoliq_c
EndChar

StartChar: mamei
Encoding: 23 988848 23
Width: 1385
VWidth: 1100
GlyphClass: 2
Flags: W
AnchorPoint: "tone" 231 513 basechar 0
LayerCount: 2
Fore
SplineSet
1366 -256 m 2,0,1
 1366 -354 1366 -354 1303 -425 c 0,2,3
 1274 -457 1274 -457 1241 -473 c 1,4,5
 1248 -461 1248 -461 1255 -446 c 0,6,7
 1290 -369 1290 -369 1290 -262 c 0,8,9
 1290 -259 1290 -259 1290 -256 c 2,10,11
 1290 -256 1290 -256 1290 20 c 1,12,-1
 303 20 l 1,13,14
 318 39 318 39 330 67 c 0,15,16
 366 146 366 146 366 256 c 0,17,18
 366 317 366 317 327 360 c 0,19,20
 288 405 288 405 231 405 c 256,21,22
 174 405 174 405 134 360 c 0,23,24
 102 324 102 324 96 276 c 1,25,26
 96 276 96 276 21 276 c 1,27,28
 27 361 27 361 83 425 c 0,29,30
 145 493 145 493 231 493 c 256,31,32
 318 493 318 493 379 425 c 0,33,34
 442 356 442 356 442 256 c 0,35,36
 442 190 442 190 413 138 c 2,37,38
 413 138 413 138 397 108 c 1,39,-1
 828 108 l 1,40,-1
 828 256 l 2,41,42
 828 316 828 316 790 360 c 0,43,44
 750 405 750 405 693 405 c 0,45,46
 636 405 636 405 596 360 c 0,47,48
 564 324 564 324 558 276 c 1,49,50
 558 276 558 276 483 276 c 1,51,52
 489 361 489 361 545 425 c 0,53,54
 607 493 607 493 693 493 c 256,55,56
 780 493 780 493 841 425 c 0,57,58
 904 356 904 356 904 256 c 2,59,60
 904 256 904 256 904 108 c 1,61,-1
 1290 108 l 1,62,-1
 1290 256 l 2,63,64
 1290 316 1290 316 1252 360 c 0,65,66
 1212 405 1212 405 1155 405 c 0,67,68
 1098 405 1098 405 1058 360 c 0,69,70
 1026 324 1026 324 1020 276 c 1,71,72
 1020 276 1020 276 945 276 c 1,73,74
 951 361 951 361 1006 425 c 0,75,76
 1068 493 1068 493 1155 493 c 256,77,78
 1242 493 1242 493 1303 425 c 0,79,80
 1366 356 1366 356 1366 256 c 2,81,82
 1366 256 1366 256 1366 -256 c 2,0,1
EndSplineSet
Substitution2: "WithCartouche" mamei_c
EndChar

StartChar: nanaq
Encoding: 24 988853 24
Width: 461
VWidth: 1100
GlyphClass: 2
Flags: W
AnchorPoint: "tone" 231 513 basechar 0
LayerCount: 2
Fore
SplineSet
231 405 m 256,0,1
 174 405 174 405 135 361 c 256,2,3
 95 317 95 317 95 256 c 256,4,5
 95 195 95 195 134 153 c 0,6,7
 174 108 174 108 231 108 c 256,8,9
 288 108 288 108 327 153 c 0,10,11
 366 196 366 196 366 256 c 256,12,13
 366 317 366 317 327 360 c 0,14,15
 288 405 288 405 231 405 c 256,0,1
379 88 m 0,16,17
 318 20 318 20 231 20 c 256,18,19
 144 20 144 20 83 88 c 0,20,21
 20 157 20 157 20 256 c 256,22,23
 20 354 20 354 83 425 c 0,24,25
 145 493 145 493 231 493 c 256,26,27
 318 493 318 493 379 425 c 0,28,29
 442 356 442 356 442 256 c 256,30,31
 442 157 442 157 379 88 c 0,16,17
425 675 m 1,32,33
 409 635 409 635 379 601 c 0,34,35
 325 540 325 540 251 534 c 1,36,37
 251 534 251 534 251 621 c 1,38,39
 355 626 355 626 425 675 c 1,32,33
EndSplineSet
Substitution2: "WithCartouche" nanaq_c
EndChar

StartChar: pipoq
Encoding: 25 988851 25
Width: 461
VWidth: 1100
GlyphClass: 2
Flags: W
AnchorPoint: "tone" 231 513 basechar 0
LayerCount: 2
Fore
SplineSet
231 405 m 256,0,1
 174 405 174 405 135 361 c 256,2,3
 95 317 95 317 95 256 c 256,4,5
 95 195 95 195 134 153 c 0,6,7
 174 108 174 108 231 108 c 256,8,9
 288 108 288 108 327 153 c 0,10,11
 366 196 366 196 366 256 c 256,12,13
 366 317 366 317 327 360 c 0,14,15
 288 405 288 405 231 405 c 256,0,1
442 -256 m 2,16,17
 442 -354 442 -354 379 -425 c 0,18,19
 350 -458 350 -458 316 -474 c 1,20,21
 324 -461 324 -461 330 -446 c 0,22,23
 366 -367 366 -367 366 -256 c 2,24,25
 366 -256 366 -256 366 69 c 1,26,-1
 335 50 l 2,27,28
 288 20 288 20 231 20 c 0,29,30
 144 20 144 20 83 88 c 0,31,32
 20 157 20 157 20 256 c 256,33,34
 20 354 20 354 83 425 c 0,35,36
 145 493 145 493 231 493 c 256,37,38
 318 493 318 493 379 425 c 0,39,40
 442 356 442 356 442 256 c 2,41,42
 442 256 442 256 442 -256 c 2,16,17
EndSplineSet
Substitution2: "WithCartouche" pipoq_c
EndChar

StartChar: aqaq
Encoding: 26 988866 26
Width: 461
VWidth: 1100
GlyphClass: 2
Flags: W
AnchorPoint: "tone" 231 513 basechar 0
LayerCount: 2
Fore
SplineSet
366 69 m 1,0,-1
 335 50 l 2,1,2
 288 20 288 20 231 20 c 0,3,4
 144 20 144 20 83 88 c 0,5,6
 20 157 20 157 20 256 c 256,7,8
 20 354 20 354 83 425 c 0,9,10
 138 486 138 486 211 492 c 1,11,12
 211 492 211 492 211 403 c 1,13,14
 167 396 167 396 134 360 c 0,15,16
 95 316 95 316 95 256 c 256,17,18
 95 195 95 195 134 153 c 0,19,20
 174 108 174 108 231 108 c 256,21,22
 288 108 288 108 327 153 c 0,23,24
 359 188 359 188 365 236 c 1,25,26
 365 236 365 236 442 236 c 1,27,-1
 442 -256 l 2,28,29
 442 -354 442 -354 379 -425 c 0,30,31
 350 -458 350 -458 316 -474 c 1,32,33
 324 -461 324 -461 330 -446 c 0,34,35
 366 -367 366 -367 366 -256 c 2,36,37
 366 -256 366 -256 366 69 c 1,0,-1
EndSplineSet
Substitution2: "WithCartouche" aqaq_c
EndChar

StartChar: rairua
Encoding: 27 988859 27
Width: 923
VWidth: 1100
GlyphClass: 2
Flags: W
AnchorPoint: "tone" 231 513 basechar 0
LayerCount: 2
Fore
SplineSet
904 -256 m 2,0,1
 904 -354 904 -354 841 -425 c 0,2,3
 812 -457 812 -457 779 -473 c 1,4,5
 786 -461 786 -461 793 -446 c 0,6,7
 828 -369 828 -369 828 -262 c 0,8,9
 828 -259 828 -259 828 -256 c 2,10,11
 828 -256 828 -256 828 20 c 1,12,-1
 303 20 l 1,13,14
 318 39 318 39 330 67 c 0,15,16
 366 146 366 146 366 256 c 0,17,18
 366 317 366 317 327 360 c 0,19,20
 288 405 288 405 231 405 c 256,21,22
 174 405 174 405 134 360 c 0,23,24
 102 324 102 324 96 276 c 1,25,26
 96 276 96 276 21 276 c 1,27,28
 27 361 27 361 83 425 c 0,29,30
 145 493 145 493 231 493 c 256,31,32
 318 493 318 493 379 425 c 0,33,34
 442 356 442 356 442 256 c 0,35,36
 442 190 442 190 413 138 c 2,37,38
 413 138 413 138 397 108 c 1,39,-1
 828 108 l 1,40,-1
 828 256 l 2,41,42
 828 316 828 316 790 360 c 0,43,44
 750 405 750 405 693 405 c 0,45,46
 636 405 636 405 596 360 c 0,47,48
 564 324 564 324 558 276 c 1,49,50
 558 276 558 276 483 276 c 1,51,52
 489 361 489 361 545 425 c 0,53,54
 607 493 607 493 693 493 c 256,55,56
 780 493 780 493 841 425 c 0,57,58
 904 356 904 356 904 256 c 2,59,60
 904 256 904 256 904 -256 c 2,0,1
EndSplineSet
Substitution2: "WithCartouche" rairua_c
EndChar

StartChar: saqseoq
Encoding: 28 988858 28
Width: 461
VWidth: 1100
GlyphClass: 2
Flags: W
AnchorPoint: "vv" 462 -161 basechar 0
AnchorPoint: "tone" 231 513 basechar 0
LayerCount: 2
Fore
SplineSet
231 405 m 256,0,1
 174 405 174 405 135 361 c 256,2,3
 95 317 95 317 95 256 c 256,4,5
 95 195 95 195 134 153 c 0,6,7
 174 108 174 108 231 108 c 256,8,9
 288 108 288 108 327 153 c 0,10,11
 366 196 366 196 366 256 c 256,12,13
 366 317 366 317 327 360 c 0,14,15
 288 405 288 405 231 405 c 256,0,1
379 88 m 0,16,17
 318 20 318 20 231 20 c 256,18,19
 144 20 144 20 83 88 c 0,20,21
 20 157 20 157 20 256 c 256,22,23
 20 354 20 354 83 425 c 0,24,25
 145 493 145 493 231 493 c 256,26,27
 318 493 318 493 379 425 c 0,28,29
 442 356 442 356 442 256 c 256,30,31
 442 157 442 157 379 88 c 0,16,17
EndSplineSet
Substitution2: "WithCartouche" saqseoq_c
EndChar

StartChar: titieq
Encoding: 29 988855 29
Width: 808
VWidth: 1100
GlyphClass: 2
Flags: W
CounterMasks: 1 1c
AnchorPoint: "tone" 231 513 basechar 0
LayerCount: 2
Fore
SplineSet
231 405 m 256,0,1
 174 405 174 405 135 361 c 256,2,3
 95 317 95 317 95 256 c 256,4,5
 95 195 95 195 134 153 c 0,6,7
 174 108 174 108 231 108 c 256,8,9
 288 108 288 108 327 153 c 0,10,11
 366 196 366 196 366 256 c 256,12,13
 366 317 366 317 327 360 c 0,14,15
 288 405 288 405 231 405 c 256,0,1
442 256 m 2,16,17
 442 158 442 158 379 88 c 0,18,19
 318 20 318 20 231 20 c 256,20,21
 144 20 144 20 83 88 c 0,22,23
 20 157 20 157 20 256 c 256,24,25
 20 354 20 354 83 425 c 0,26,27
 145 493 145 493 231 493 c 0,28,29
 289 493 289 493 335 463 c 2,30,31
 335 463 335 463 366 443 c 1,32,-1
 366 480 l 1,33,-1
 366 513 l 2,34,35
 366 611 366 611 428 680 c 256,36,37
 490 749 490 749 577 750 c 0,38,39
 664 750 664 750 726 681 c 0,40,41
 788 613 788 613 788 516 c 0,42,43
 788 515 788 515 788 513 c 2,44,45
 788 513 788 513 788 256 c 2,46,47
 788 158 788 158 726 88 c 0,48,49
 697 56 697 56 663 39 c 1,50,51
 670 51 670 51 677 67 c 0,52,53
 713 146 713 146 713 256 c 2,54,55
 713 256 713 256 713 513 c 2,56,57
 713 574 713 574 674 617 c 256,58,59
 635 661 635 661 579 661 c 0,60,61
 578 661 578 661 577 661 c 0,62,63
 520 661 520 661 481 617 c 256,64,65
 442 573 442 573 442 513 c 2,66,67
 442 513 442 513 442 256 c 2,16,17
EndSplineSet
Substitution2: "WithCartouche" titieq_c
EndChar

StartChar: veva
Encoding: 30 988865 30
Width: 461
VWidth: 1100
GlyphClass: 2
Flags: W
AnchorPoint: "tone" 693 513 basechar 0
LayerCount: 2
Fore
SplineSet
379 88 m 0,0,1
 350 55 350 55 316 39 c 1,2,3
 324 52 324 52 330 67 c 0,4,5
 366 146 366 146 366 256 c 0,6,7
 366 317 366 317 327 360 c 0,8,9
 288 405 288 405 231 405 c 2,10,11
 231 405 231 405 20 405 c 1,12,-1
 20 513 l 2,13,14
 20 611 20 611 83 681 c 0,15,16
 111 713 111 713 145 730 c 1,17,18
 138 718 138 718 131 702 c 0,19,20
 95 623 95 623 95 513 c 2,21,22
 95 513 95 513 95 493 c 1,23,-1
 231 493 l 2,24,25
 318 493 318 493 379 425 c 0,26,27
 442 356 442 356 442 256 c 256,28,29
 442 157 442 157 379 88 c 0,0,1
EndSplineSet
Substitution2: "WithCartouche" veva_c
EndChar

StartChar: nhanhoq
Encoding: 31 988861 31
Width: 461
VWidth: 1100
GlyphClass: 2
Flags: W
AnchorPoint: "tone" 231 513 basechar 0
LayerCount: 2
Fore
SplineSet
231 3 m 1025,0,-1
202 76 m 128,-1,2
 223 76 223 76 237 91.5 c 128,-1,3
 251 107 251 107 251 128 c 128,-1,4
 251 149 251 149 237 164 c 0,5,6
 222 180 222 180 201.5 180 c 128,-1,7
 181 180 181 180 167 163 c 0,8,9
 153 148 153 148 153 127.5 c 128,-1,10
 153 107 153 107 167 91.5 c 128,-1,1
 181 76 181 76 202 76 c 128,-1,2
379 88 m 0,11,12
 324 27 324 27 251 21 c 1,13,14
 251 21 251 21 251 28 c 1,15,-1
 227 23 l 2,16,17
 215 20 215 20 202 20 c 0,18,19
 163 20 163 20 135 50 c 0,20,21
 107 81 107 81 107 125 c 0,22,23
 107 126 107 126 107 128 c 2,24,25
 107 128 107 128 107 128 c 2,26,27
 107 173 107 173 135 206 c 0,28,29
 163 236 163 236 202 236 c 128,-1,30
 241 236 241 236 269 206 c 0,31,32
 286 185 286 185 293 161 c 2,33,34
 293 161 293 161 302 125 c 1,35,-1
 327 153 l 2,36,37
 366 197 366 197 366 257 c 128,-1,38
 366 317 366 317 327 360 c 0,39,40
 288 405 288 405 231 405 c 128,-1,41
 174 405 174 405 134 360 c 0,42,43
 102 324 102 324 96 276 c 1,44,45
 96 276 96 276 21 276 c 1,46,47
 27 361 27 361 83 425 c 0,48,49
 145 493 145 493 231.5 493 c 128,-1,50
 318 493 318 493 379 425 c 0,51,52
 442 356 442 356 442 256.5 c 128,-1,53
 442 157 442 157 379 88 c 0,11,12
EndSplineSet
Substitution2: "WithCartouche" nhanhoq_c
EndChar

StartChar: shoshia
Encoding: 32 988864 32
Width: 461
VWidth: 1100
GlyphClass: 2
Flags: W
AnchorPoint: "tone" 231 513 basechar 0
LayerCount: 2
Fore
SplineSet
425 547 m 1,0,1
 409 507 409 507 379 473 c 0,2,3
 317 405 317 405 231 405 c 0,4,5
 174 405 174 405 135 361 c 256,6,7
 95 317 95 317 95 256 c 256,8,9
 95 195 95 195 134 153 c 0,10,11
 174 108 174 108 231 108 c 256,12,13
 288 108 288 108 327 153 c 0,14,15
 359 188 359 188 365 236 c 1,16,17
 365 236 365 236 442 236 c 1,18,-1
 442 -256 l 2,19,20
 442 -354 442 -354 379 -425 c 0,21,22
 350 -458 350 -458 316 -474 c 1,23,24
 324 -461 324 -461 330 -446 c 0,25,26
 366 -367 366 -367 366 -256 c 2,27,28
 366 -256 366 -256 366 69 c 1,29,-1
 335 50 l 2,30,31
 288 20 288 20 231 20 c 0,32,33
 144 20 144 20 83 88 c 0,34,35
 20 157 20 157 20 256 c 256,36,37
 20 354 20 354 83 425 c 0,38,39
 145 493 145 493 231 493 c 0,40,41
 348 493 348 493 425 547 c 1,0,1
EndSplineSet
Substitution2: "WithCartouche" shoshia_c
EndChar

StartChar: chichao
Encoding: 33 988863 33
Width: 461
VWidth: 1100
GlyphClass: 2
Flags: W
AnchorPoint: "tone" 231 513 basechar 0
LayerCount: 2
Fore
SplineSet
425 547 m 1,0,1
 409 507 409 507 379 473 c 0,2,3
 317 405 317 405 231 405 c 0,4,5
 174 405 174 405 135 361 c 256,6,7
 95 317 95 317 95 256 c 256,8,9
 95 195 95 195 134 153 c 0,10,11
 174 108 174 108 231 108 c 0,12,13
 332 108 332 108 404 148 c 0,14,15
 415 154 415 154 425 161 c 1,16,17
 409 122 409 122 379 88 c 0,18,19
 318 20 318 20 231 20 c 256,20,21
 144 20 144 20 83 88 c 0,22,23
 20 157 20 157 20 256 c 256,24,25
 20 354 20 354 83 425 c 0,26,27
 145 493 145 493 231 493 c 0,28,29
 348 493 348 493 425 547 c 1,0,1
EndSplineSet
Substitution2: "WithCartouche" chichao_c
EndChar

StartChar: zozeo
Encoding: 34 988856 34
Width: 461
VWidth: 1100
GlyphClass: 2
Flags: W
AnchorPoint: "tone" 231 513 basechar 0
LayerCount: 2
Fore
SplineSet
49 -128 m 2,0,1
 49 -30 49 -30 111 40 c 0,2,3
 164 98 164 98 233 106 c 2,4,5
 233 106 233 106 249 108 c 1,6,-1
 366 108 l 1,7,-1
 366 256 l 2,8,9
 366 317 366 317 327 360 c 0,10,11
 288 405 288 405 231 405 c 256,12,13
 174 405 174 405 134 360 c 0,14,15
 102 324 102 324 96 276 c 1,16,17
 96 276 96 276 21 276 c 1,18,19
 27 361 27 361 83 425 c 0,20,21
 145 493 145 493 231 493 c 256,22,23
 318 493 318 493 379 425 c 0,24,25
 442 356 442 356 442 256 c 2,26,27
 442 256 442 256 442 108 c 1,28,-1
 693 108 l 2,29,30
 794 108 794 108 866 148 c 0,31,32
 877 154 877 154 887 161 c 1,33,34
 871 122 871 122 841 88 c 0,35,36
 779 20 779 20 693 20 c 2,37,38
 693 20 693 20 442 20 c 1,39,-1
 442 -256 l 2,40,41
 442 -354 442 -354 379 -425 c 0,42,43
 350 -457 350 -457 316 -474 c 1,44,45
 323 -461 323 -461 330 -446 c 0,46,47
 366 -367 366 -367 366 -256 c 2,48,49
 366 -256 366 -256 366 20 c 1,50,-1
 260 20 l 2,51,52
 203 20 203 20 164 -24 c 256,53,54
 124 -68 124 -68 124 -128 c 2,55,56
 124 -128 124 -128 124 -256 c 2,57,58
 124 -366 124 -366 160 -446 c 0,59,60
 167 -461 167 -461 174 -473 c 1,61,62
 140 -456 140 -456 111 -425 c 0,63,64
 49 -357 49 -357 49 -259 c 0,65,66
 49 -258 49 -258 49 -256 c 2,67,68
 49 -256 49 -256 49 -128 c 2,0,1
174 -473 m 1,69,70
 206 -489 206 -489 242 -492 c 0,71,72
 245 -492 245 -492 249 -492 c 0,73,74
 285 -489 285 -489 316 -474 c 1,75,76
 288 -521 288 -521 250 -530 c 2,77,-1
 245 -532 l 1,78,-1
 240 -530 l 2,79,80
 202 -520 202 -520 174 -473 c 1,69,70
EndSplineSet
Substitution2: "WithCartouche" zozeo_c
EndChar

StartChar: rising_falling
Encoding: 35 988876 35
Width: 0
VWidth: 1100
GlyphClass: 4
Flags: W
AnchorPoint: "tone" 256 456 mark 0
LayerCount: 2
Fore
SplineSet
413 706 m 256,0,1
 413 608 413 608 350 537 c 0,2,3
 321 505 321 505 288 489 c 1,4,5
 295 501 295 501 302 516 c 0,6,7
 337 593 337 593 337 700 c 0,8,9
 337 703 337 703 337 706 c 0,10,11
 337 767 337 767 298 810 c 256,12,13
 259 854 259 854 202 854 c 256,14,15
 145 854 145 854 105 809 c 0,16,17
 73 774 73 774 68 726 c 1,18,19
 68 726 68 726 -8 726 c 1,20,21
 -2 811 -2 811 54 874 c 0,22,23
 116 942 116 942 202 942 c 256,24,25
 289 942 289 942 350 874 c 0,26,27
 413 804 413 804 413 706 c 256,0,1
EndSplineSet
EndChar

StartChar: bubue_c
Encoding: 36 -1 36
Width: 461
VWidth: 1100
GlyphClass: 2
Flags: W
AnchorPoint: "vv" 462 -161 basechar 0
AnchorPoint: "tone" 231 513 basechar 0
LayerCount: 2
Fore
SplineSet
379 88 m 0,0,1
 350 55 350 55 316 39 c 1,2,3
 324 52 324 52 330 67 c 0,4,5
 366 146 366 146 366 256 c 0,6,7
 366 317 366 317 327 360 c 0,8,9
 288 405 288 405 231 405 c 256,10,11
 174 405 174 405 134 360 c 0,12,13
 102 324 102 324 96 276 c 1,14,15
 96 276 96 276 21 276 c 1,16,17
 27 361 27 361 83 425 c 0,18,19
 145 493 145 493 231 493 c 256,20,21
 318 493 318 493 379 425 c 0,22,23
 442 356 442 356 442 256 c 256,24,25
 442 157 442 157 379 88 c 0,0,1
20 1135 m 1,26,-1
 640 1135 l 1,27,-1
 640 1046 l 1,28,-1
 20 1046 l 1,29,-1
 20 1135 l 1,26,-1
EndSplineSet
Substitution2: "TrimCartouche" bubue_c_end
EndChar

StartChar: cecoa_c
Encoding: 37 -1 37
Width: 461
VWidth: 1100
GlyphClass: 2
Flags: W
AnchorPoint: "tone" 231 513 basechar 0
AnchorPoint: "vv" 462 -161 basechar 0
LayerCount: 2
Fore
SplineSet
231 108 m 0,0,1
 332 108 332 108 404 148 c 0,2,3
 415 154 415 154 425 161 c 1,4,5
 409 122 409 122 379 88 c 0,6,7
 318 20 318 20 231 20 c 256,8,9
 144 20 144 20 83 88 c 0,10,11
 20 157 20 157 20 256 c 256,12,13
 20 354 20 354 83 425 c 0,14,15
 138 486 138 486 211 492 c 1,16,17
 211 492 211 492 211 403 c 1,18,19
 167 396 167 396 134 360 c 0,20,21
 95 316 95 316 95 256 c 256,22,23
 95 195 95 195 134 153 c 0,24,25
 174 108 174 108 231 108 c 0,0,1
20 1135 m 1,26,-1
 640 1135 l 1,27,-1
 640 1046 l 1,28,-1
 20 1046 l 1,29,-1
 20 1135 l 1,26,-1
EndSplineSet
Substitution2: "TrimCartouche" cecoa_c_end
EndChar

StartChar: dudeo_c
Encoding: 38 -1 38
Width: 461
VWidth: 1100
GlyphClass: 2
Flags: W
AnchorPoint: "tone" 231 513 basechar 0
LayerCount: 2
Fore
SplineSet
202 333 m 128,-1,1
 223 333 223 333 237 348 c 0,2,3
 251 363 251 363 251 384.5 c 128,-1,4
 251 406 251 406 237 421 c 0,5,6
 222 437 222 437 201.5 437 c 128,-1,7
 181 437 181 437 167 420 c 0,8,9
 153 405 153 405 153 384.5 c 128,-1,10
 153 364 153 364 167 348.5 c 128,-1,0
 181 333 181 333 202 333 c 128,-1,1
379 88 m 0,11,12
 318 20 318 20 231 20 c 128,-1,13
 144 20 144 20 82 88 c 0,14,15
 52 121 52 121 37 160 c 1,16,17
 46 154 46 154 57 148 c 0,18,19
 128 108 128 108 226 108 c 0,20,21
 229 108 229 108 231 108 c 0,22,23
 288 108 288 108 327 153 c 0,24,25
 366 198 366 198 366 256 c 0,26,27
 366 317 366 317 327 360 c 2,28,29
 327 360 327 360 302 388 c 1,30,-1
 293 352 l 2,31,32
 286 327 286 327 269 307 c 0,33,34
 241 276 241 276 202 276 c 128,-1,35
 163 276 163 276 135 307 c 0,36,37
 107 339 107 339 107 382 c 0,38,39
 107 383 107 383 107 385 c 2,40,41
 107 385 107 385 107 385 c 2,42,43
 107 430 107 430 135 462 c 0,44,45
 166 496 166 496 202 493 c 0,46,47
 226 490 226 490 226 490 c 130,-1,48
 226 490 226 490 196 495 c 1,49,-1
 202 493 l 1,50,51
 327 483 327 483 379 425 c 0,52,53
 442 355 442 355 442 256.5 c 128,-1,54
 442 158 442 158 379 88 c 0,11,12
20 1135 m 1,55,-1
 640 1135 l 1,56,-1
 640 1046 l 1,57,-1
 20 1046 l 1,58,-1
 20 1135 l 1,55,-1
EndSplineSet
Substitution2: "TrimCartouche" dudeo_c_end
EndChar

StartChar: fofuaq_c
Encoding: 39 -1 39
Width: 461
VWidth: 1100
GlyphClass: 2
Flags: W
AnchorPoint: "tone" 231 513 basechar 0
AnchorPoint: "vv" 462 -161 basechar 0
LayerCount: 2
Fore
SplineSet
366 -256 m 2,0,1
 366 -256 366 -256 366 256 c 2,2,3
 366 317 366 317 327 360 c 0,4,5
 288 405 288 405 231 405 c 256,6,7
 174 405 174 405 134 360 c 0,8,9
 102 324 102 324 96 276 c 1,10,11
 96 276 96 276 21 276 c 1,12,13
 27 361 27 361 83 425 c 0,14,15
 145 493 145 493 231 493 c 256,16,17
 318 493 318 493 379 425 c 0,18,19
 442 356 442 356 442 256 c 2,20,21
 442 256 442 256 442 -256 c 2,22,23
 442 -354 442 -354 379 -425 c 0,24,25
 350 -458 350 -458 316 -474 c 1,26,27
 324 -461 324 -461 330 -446 c 0,28,29
 366 -367 366 -367 366 -256 c 2,0,1
20 1135 m 1,30,-1
 640 1135 l 1,31,-1
 640 1046 l 1,32,-1
 20 1046 l 1,33,-1
 20 1135 l 1,30,-1
EndSplineSet
Substitution2: "TrimCartouche" fofuaq_c_end
EndChar

StartChar: gugui_c
Encoding: 40 -1 40
Width: 605
VWidth: 1100
GlyphClass: 2
Flags: W
AnchorPoint: "tone" 231 513 basechar 0
AnchorPoint: "vv" 577 -161 basechar 0
LayerCount: 2
Fore
SplineSet
577 108 m 0,0,1
 621 108 621 108 657 137 c 1,2,3
 657 137 657 137 714 75 c 1,4,5
 689 52 689 52 659 38 c 0,6,7
 619 20 619 20 577 20 c 0,8,9
 490 20 490 20 429 88 c 0,10,11
 423 95 423 95 420 99 c 2,12,13
 420 99 420 99 405 120 c 1,14,-1
 389 100 l 1,15,-1
 379 88 l 1,16,17
 318 20 318 20 231 20 c 256,18,19
 144 20 144 20 83 88 c 0,20,21
 20 157 20 157 20 256 c 256,22,23
 20 354 20 354 83 425 c 0,24,25
 138 486 138 486 211 492 c 1,26,27
 211 492 211 492 211 403 c 1,28,29
 167 396 167 396 134 360 c 0,30,31
 95 316 95 316 95 256 c 256,32,33
 95 195 95 195 134 153 c 0,34,35
 174 108 174 108 231 108 c 256,36,37
 288 108 288 108 327 153 c 0,38,39
 359 188 359 188 365 236 c 1,40,41
 365 236 365 236 443 236 c 1,42,43
 449 188 449 188 481 153 c 0,44,45
 521 108 521 108 577 108 c 0,0,1
20 1135 m 1,46,-1
 784 1135 l 1,47,-1
 784 1046 l 1,48,-1
 20 1046 l 1,49,-1
 20 1135 l 1,46,-1
EndSplineSet
Substitution2: "TrimCartouche" gugui_c_end
EndChar

StartChar: hehaq_c
Encoding: 41 -1 41
Width: 461
VWidth: 1100
GlyphClass: 2
Flags: W
AnchorPoint: "tone" 231 513 basechar 0
LayerCount: 2
Fore
SplineSet
251 20 m 1,0,-1
 251 108 l 1,1,-1
 366 108 l 1,2,-1
 366 256 l 2,3,4
 366 317 366 317 327 360 c 0,5,6
 288 405 288 405 231 405 c 256,7,8
 174 405 174 405 134 360 c 0,9,10
 102 324 102 324 96 276 c 1,11,12
 96 276 96 276 21 276 c 1,13,14
 27 361 27 361 83 425 c 0,15,16
 145 493 145 493 231 493 c 256,17,18
 318 493 318 493 379 425 c 0,19,20
 442 356 442 356 442 256 c 2,21,22
 442 256 442 256 442 108 c 1,23,-1
 693 108 l 2,24,25
 794 108 794 108 866 148 c 0,26,27
 877 154 877 154 887 161 c 1,28,29
 871 122 871 122 841 88 c 0,30,31
 779 20 779 20 693 20 c 2,32,33
 693 20 693 20 442 20 c 1,34,-1
 442 -256 l 2,35,36
 442 -354 442 -354 379 -425 c 0,37,38
 350 -458 350 -458 316 -474 c 1,39,40
 324 -461 324 -461 330 -446 c 0,41,42
 366 -367 366 -367 366 -256 c 2,43,44
 366 -256 366 -256 366 20 c 1,45,-1
 251 20 l 1,0,-1
20 1135 m 1,46,-1
 640 1135 l 1,47,-1
 640 1046 l 1,48,-1
 20 1046 l 1,49,-1
 20 1135 l 1,46,-1
EndSplineSet
Substitution2: "TrimCartouche" hehaq_c_end
EndChar

StartChar: jujuo_c
Encoding: 42 -1 42
Width: 808
VWidth: 1100
GlyphClass: 2
Flags: W
CounterMasks: 1 38
AnchorPoint: "tone" 231 513 basechar 0
LayerCount: 2
Fore
SplineSet
577 405 m 256,0,1
 520 405 520 405 481 360 c 0,2,3
 449 324 449 324 443 276 c 1,4,5
 443 276 443 276 365 276 c 1,6,7
 359 324 359 324 327 360 c 0,8,9
 288 405 288 405 231 405 c 256,10,11
 174 405 174 405 134 360 c 0,12,13
 102 324 102 324 96 276 c 1,14,15
 96 276 96 276 21 276 c 1,16,17
 27 361 27 361 83 425 c 0,18,19
 145 493 145 493 231 493 c 256,20,21
 318 493 318 493 379 425 c 0,22,23
 385 418 385 418 388 414 c 2,24,25
 388 414 388 414 403 393 c 1,26,-1
 419 413 l 1,27,-1
 429 425 l 1,28,29
 491 493 491 493 578 493 c 256,30,31
 665 493 665 493 726 425 c 256,32,33
 788 357 788 357 788 259 c 0,34,35
 788 258 788 258 788 256 c 2,36,37
 788 256 788 256 788 256 c 2,38,39
 788 158 788 158 726 88 c 0,40,41
 697 56 697 56 663 39 c 1,42,43
 670 51 670 51 677 67 c 0,44,45
 713 146 713 146 713 256 c 0,46,47
 713 317 713 317 673 361 c 256,48,49
 634 405 634 405 577 405 c 256,0,1
20 1135 m 1,50,-1
 986 1135 l 1,51,-1
 986 1046 l 1,52,-1
 20 1046 l 1,53,-1
 20 1135 l 1,50,-1
EndSplineSet
Substitution2: "TrimCartouche" jujuo_c_end
EndChar

StartChar: kikue_c
Encoding: 43 -1 43
Width: 461
VWidth: 1100
GlyphClass: 2
Flags: W
AnchorPoint: "tone" 231 513 basechar 0
LayerCount: 2
Fore
SplineSet
231 -314 m 256,0,1
 211 -314 211 -314 197 -297 c 256,2,3
 182 -280 182 -280 182 -256 c 256,4,5
 182 -232 182 -232 197 -215 c 256,6,7
 212 -199 212 -199 231 -199 c 0,8,9
 251 -199 251 -199 265 -216 c 256,10,11
 280 -232 280 -232 280 -256 c 256,12,13
 280 -280 280 -280 265 -297 c 256,14,15
 251 -314 251 -314 231 -314 c 256,0,1
231 108 m 0,16,17
 332 108 332 108 404 148 c 0,18,19
 415 154 415 154 425 161 c 1,20,21
 409 122 409 122 379 88 c 0,22,23
 318 20 318 20 231 20 c 256,24,25
 144 20 144 20 83 88 c 0,26,27
 20 157 20 157 20 256 c 256,28,29
 20 354 20 354 83 425 c 0,30,31
 138 486 138 486 211 492 c 1,32,33
 211 492 211 492 211 403 c 1,34,35
 167 396 167 396 134 360 c 0,36,37
 95 316 95 316 95 256 c 256,38,39
 95 195 95 195 134 153 c 0,40,41
 174 108 174 108 231 108 c 0,16,17
20 1135 m 1,42,-1
 640 1135 l 1,43,-1
 640 1046 l 1,44,-1
 20 1046 l 1,45,-1
 20 1135 l 1,42,-1
EndSplineSet
Substitution2: "TrimCartouche" kikue_c_end
EndChar

StartChar: laoliq_c
Encoding: 44 -1 44
Width: 923
VWidth: 1100
GlyphClass: 2
Flags: W
AnchorPoint: "tone" 231 513 basechar 0
LayerCount: 2
Fore
SplineSet
528 -256 m 0,0,1
 528 -232 528 -232 543 -216 c 2,2,3
 543 -216 543 -216 544 -215 c 2,4,5
 558 -199 558 -199 578 -199 c 256,6,7
 597 -199 597 -199 612 -216 c 256,8,9
 627 -233 627 -233 627 -256 c 0,10,11
 627 -280 627 -280 612 -297 c 256,12,13
 597 -314 597 -314 577 -314 c 0,14,15
 557 -314 557 -314 543 -297 c 256,16,17
 529 -281 529 -281 528 -256 c 0,0,1
904 20 m 1,18,-1
 303 20 l 1,19,20
 318 39 318 39 330 67 c 0,21,22
 366 146 366 146 366 256 c 0,23,24
 366 317 366 317 327 360 c 0,25,26
 288 405 288 405 231 405 c 256,27,28
 174 405 174 405 134 360 c 0,29,30
 102 324 102 324 96 276 c 1,31,32
 96 276 96 276 21 276 c 1,33,34
 27 361 27 361 83 425 c 0,35,36
 145 493 145 493 231 493 c 256,37,38
 318 493 318 493 379 425 c 0,39,40
 442 356 442 356 442 256 c 0,41,42
 442 190 442 190 413 138 c 2,43,44
 413 138 413 138 397 108 c 1,45,-1
 828 108 l 1,46,-1
 828 256 l 2,47,48
 828 316 828 316 790 360 c 0,49,50
 750 405 750 405 693 405 c 0,51,52
 636 405 636 405 596 360 c 0,53,54
 564 324 564 324 558 276 c 1,55,56
 558 276 558 276 483 276 c 1,57,58
 489 361 489 361 545 425 c 0,59,60
 607 493 607 493 693 493 c 256,61,62
 780 493 780 493 841 425 c 0,63,64
 904 356 904 356 904 256 c 2,65,66
 904 256 904 256 904 20 c 1,18,-1
20 1135 m 1,67,-1
 1102 1135 l 1,68,-1
 1102 1046 l 1,69,-1
 20 1046 l 1,70,-1
 20 1135 l 1,67,-1
EndSplineSet
Substitution2: "TrimCartouche" laoliq_c_end
EndChar

StartChar: mamei_c
Encoding: 45 -1 45
Width: 1385
VWidth: 1100
GlyphClass: 2
Flags: W
AnchorPoint: "tone" 231 513 basechar 0
LayerCount: 2
Fore
SplineSet
1366 -256 m 2,0,1
 1366 -354 1366 -354 1303 -425 c 0,2,3
 1274 -457 1274 -457 1241 -473 c 1,4,5
 1248 -461 1248 -461 1255 -446 c 0,6,7
 1290 -369 1290 -369 1290 -262 c 0,8,9
 1290 -259 1290 -259 1290 -256 c 2,10,11
 1290 -256 1290 -256 1290 20 c 1,12,-1
 303 20 l 1,13,14
 318 39 318 39 330 67 c 0,15,16
 366 146 366 146 366 256 c 0,17,18
 366 317 366 317 327 360 c 0,19,20
 288 405 288 405 231 405 c 256,21,22
 174 405 174 405 134 360 c 0,23,24
 102 324 102 324 96 276 c 1,25,26
 96 276 96 276 21 276 c 1,27,28
 27 361 27 361 83 425 c 0,29,30
 145 493 145 493 231 493 c 256,31,32
 318 493 318 493 379 425 c 0,33,34
 442 356 442 356 442 256 c 0,35,36
 442 190 442 190 413 138 c 2,37,38
 413 138 413 138 397 108 c 1,39,-1
 828 108 l 1,40,-1
 828 256 l 2,41,42
 828 316 828 316 790 360 c 0,43,44
 750 405 750 405 693 405 c 0,45,46
 636 405 636 405 596 360 c 0,47,48
 564 324 564 324 558 276 c 1,49,50
 558 276 558 276 483 276 c 1,51,52
 489 361 489 361 545 425 c 0,53,54
 607 493 607 493 693 493 c 256,55,56
 780 493 780 493 841 425 c 0,57,58
 904 356 904 356 904 256 c 2,59,60
 904 256 904 256 904 108 c 1,61,-1
 1290 108 l 1,62,-1
 1290 256 l 2,63,64
 1290 316 1290 316 1252 360 c 0,65,66
 1212 405 1212 405 1155 405 c 0,67,68
 1098 405 1098 405 1058 360 c 0,69,70
 1026 324 1026 324 1020 276 c 1,71,72
 1020 276 1020 276 945 276 c 1,73,74
 951 361 951 361 1006 425 c 0,75,76
 1068 493 1068 493 1155 493 c 256,77,78
 1242 493 1242 493 1303 425 c 0,79,80
 1366 356 1366 356 1366 256 c 2,81,82
 1366 256 1366 256 1366 -256 c 2,0,1
20 1135 m 1,83,-1
 1564 1135 l 1,84,-1
 1564 1046 l 1,85,-1
 20 1046 l 1,86,-1
 20 1135 l 1,83,-1
EndSplineSet
Substitution2: "TrimCartouche" mamei_c_end
EndChar

StartChar: nanaq_c
Encoding: 46 -1 46
Width: 461
VWidth: 1100
GlyphClass: 2
Flags: W
AnchorPoint: "tone" 231 513 basechar 0
LayerCount: 2
Fore
SplineSet
231 405 m 256,0,1
 174 405 174 405 135 361 c 256,2,3
 95 317 95 317 95 256 c 256,4,5
 95 195 95 195 134 153 c 0,6,7
 174 108 174 108 231 108 c 256,8,9
 288 108 288 108 327 153 c 0,10,11
 366 196 366 196 366 256 c 256,12,13
 366 317 366 317 327 360 c 0,14,15
 288 405 288 405 231 405 c 256,0,1
379 88 m 0,16,17
 318 20 318 20 231 20 c 256,18,19
 144 20 144 20 83 88 c 0,20,21
 20 157 20 157 20 256 c 256,22,23
 20 354 20 354 83 425 c 0,24,25
 145 493 145 493 231 493 c 256,26,27
 318 493 318 493 379 425 c 0,28,29
 442 356 442 356 442 256 c 256,30,31
 442 157 442 157 379 88 c 0,16,17
425 675 m 1,32,33
 409 635 409 635 379 601 c 0,34,35
 325 540 325 540 251 534 c 1,36,37
 251 534 251 534 251 621 c 1,38,39
 355 626 355 626 425 675 c 1,32,33
20 1135 m 1,40,-1
 640 1135 l 1,41,-1
 640 1046 l 1,42,-1
 20 1046 l 1,43,-1
 20 1135 l 1,40,-1
EndSplineSet
Substitution2: "TrimCartouche" nanaq_c_end
EndChar

StartChar: pipoq_c
Encoding: 47 -1 47
Width: 461
VWidth: 1100
GlyphClass: 2
Flags: W
AnchorPoint: "tone" 231 513 basechar 0
LayerCount: 2
Fore
SplineSet
231 405 m 256,0,1
 174 405 174 405 135 361 c 256,2,3
 95 317 95 317 95 256 c 256,4,5
 95 195 95 195 134 153 c 0,6,7
 174 108 174 108 231 108 c 256,8,9
 288 108 288 108 327 153 c 0,10,11
 366 196 366 196 366 256 c 256,12,13
 366 317 366 317 327 360 c 0,14,15
 288 405 288 405 231 405 c 256,0,1
442 -256 m 2,16,17
 442 -354 442 -354 379 -425 c 0,18,19
 350 -458 350 -458 316 -474 c 1,20,21
 324 -461 324 -461 330 -446 c 0,22,23
 366 -367 366 -367 366 -256 c 2,24,25
 366 -256 366 -256 366 69 c 1,26,-1
 335 50 l 2,27,28
 288 20 288 20 231 20 c 0,29,30
 144 20 144 20 83 88 c 0,31,32
 20 157 20 157 20 256 c 256,33,34
 20 354 20 354 83 425 c 0,35,36
 145 493 145 493 231 493 c 256,37,38
 318 493 318 493 379 425 c 0,39,40
 442 356 442 356 442 256 c 2,41,42
 442 256 442 256 442 -256 c 2,16,17
20 1135 m 1,43,-1
 640 1135 l 1,44,-1
 640 1046 l 1,45,-1
 20 1046 l 1,46,-1
 20 1135 l 1,43,-1
EndSplineSet
Substitution2: "TrimCartouche" pipoq_c_end
EndChar

StartChar: aqaq_c
Encoding: 48 -1 48
Width: 461
VWidth: 1100
GlyphClass: 2
Flags: W
AnchorPoint: "tone" 231 513 basechar 0
LayerCount: 2
Fore
SplineSet
366 69 m 1,0,-1
 335 50 l 2,1,2
 288 20 288 20 231 20 c 0,3,4
 144 20 144 20 83 88 c 0,5,6
 20 157 20 157 20 256 c 256,7,8
 20 354 20 354 83 425 c 0,9,10
 138 486 138 486 211 492 c 1,11,12
 211 492 211 492 211 403 c 1,13,14
 167 396 167 396 134 360 c 0,15,16
 95 316 95 316 95 256 c 256,17,18
 95 195 95 195 134 153 c 0,19,20
 174 108 174 108 231 108 c 256,21,22
 288 108 288 108 327 153 c 0,23,24
 359 188 359 188 365 236 c 1,25,26
 365 236 365 236 442 236 c 1,27,-1
 442 -256 l 2,28,29
 442 -354 442 -354 379 -425 c 0,30,31
 350 -458 350 -458 316 -474 c 1,32,33
 324 -461 324 -461 330 -446 c 0,34,35
 366 -367 366 -367 366 -256 c 2,36,37
 366 -256 366 -256 366 69 c 1,0,-1
20 1135 m 1,38,-1
 640 1135 l 1,39,-1
 640 1046 l 1,40,-1
 20 1046 l 1,41,-1
 20 1135 l 1,38,-1
EndSplineSet
Substitution2: "TrimCartouche" aqaq_c_end
EndChar

StartChar: rairua_c
Encoding: 49 -1 49
Width: 923
VWidth: 1100
GlyphClass: 2
Flags: W
AnchorPoint: "tone" 231 513 basechar 0
LayerCount: 2
Fore
SplineSet
904 -256 m 2,0,1
 904 -354 904 -354 841 -425 c 0,2,3
 812 -457 812 -457 779 -473 c 1,4,5
 786 -461 786 -461 793 -446 c 0,6,7
 828 -369 828 -369 828 -262 c 0,8,9
 828 -259 828 -259 828 -256 c 2,10,11
 828 -256 828 -256 828 20 c 1,12,-1
 303 20 l 1,13,14
 318 39 318 39 330 67 c 0,15,16
 366 146 366 146 366 256 c 0,17,18
 366 317 366 317 327 360 c 0,19,20
 288 405 288 405 231 405 c 256,21,22
 174 405 174 405 134 360 c 0,23,24
 102 324 102 324 96 276 c 1,25,26
 96 276 96 276 21 276 c 1,27,28
 27 361 27 361 83 425 c 0,29,30
 145 493 145 493 231 493 c 256,31,32
 318 493 318 493 379 425 c 0,33,34
 442 356 442 356 442 256 c 0,35,36
 442 190 442 190 413 138 c 2,37,38
 413 138 413 138 397 108 c 1,39,-1
 828 108 l 1,40,-1
 828 256 l 2,41,42
 828 316 828 316 790 360 c 0,43,44
 750 405 750 405 693 405 c 0,45,46
 636 405 636 405 596 360 c 0,47,48
 564 324 564 324 558 276 c 1,49,50
 558 276 558 276 483 276 c 1,51,52
 489 361 489 361 545 425 c 0,53,54
 607 493 607 493 693 493 c 256,55,56
 780 493 780 493 841 425 c 0,57,58
 904 356 904 356 904 256 c 2,59,60
 904 256 904 256 904 -256 c 2,0,1
20 1135 m 1,61,-1
 1102 1135 l 1,62,-1
 1102 1046 l 1,63,-1
 20 1046 l 1,64,-1
 20 1135 l 1,61,-1
EndSplineSet
Substitution2: "TrimCartouche" rairua_c_end
EndChar

StartChar: saqseoq_c
Encoding: 50 -1 50
Width: 461
VWidth: 1100
GlyphClass: 2
Flags: W
AnchorPoint: "tone" 231 513 basechar 0
AnchorPoint: "vv" 462 -161 basechar 0
LayerCount: 2
Fore
SplineSet
231 405 m 256,0,1
 174 405 174 405 135 361 c 256,2,3
 95 317 95 317 95 256 c 256,4,5
 95 195 95 195 134 153 c 0,6,7
 174 108 174 108 231 108 c 256,8,9
 288 108 288 108 327 153 c 0,10,11
 366 196 366 196 366 256 c 256,12,13
 366 317 366 317 327 360 c 0,14,15
 288 405 288 405 231 405 c 256,0,1
379 88 m 0,16,17
 318 20 318 20 231 20 c 256,18,19
 144 20 144 20 83 88 c 0,20,21
 20 157 20 157 20 256 c 256,22,23
 20 354 20 354 83 425 c 0,24,25
 145 493 145 493 231 493 c 256,26,27
 318 493 318 493 379 425 c 0,28,29
 442 356 442 356 442 256 c 256,30,31
 442 157 442 157 379 88 c 0,16,17
20 1135 m 1,32,-1
 640 1135 l 1,33,-1
 640 1046 l 1,34,-1
 20 1046 l 1,35,-1
 20 1135 l 1,32,-1
EndSplineSet
Substitution2: "TrimCartouche" saqseoq_c_end
EndChar

StartChar: titieq_c
Encoding: 51 -1 51
Width: 808
VWidth: 1100
GlyphClass: 2
Flags: W
CounterMasks: 1 0e
AnchorPoint: "tone" 231 513 basechar 0
LayerCount: 2
Fore
SplineSet
231 405 m 256,0,1
 174 405 174 405 135 361 c 256,2,3
 95 317 95 317 95 256 c 256,4,5
 95 195 95 195 134 153 c 0,6,7
 174 108 174 108 231 108 c 256,8,9
 288 108 288 108 327 153 c 0,10,11
 366 196 366 196 366 256 c 256,12,13
 366 317 366 317 327 360 c 0,14,15
 288 405 288 405 231 405 c 256,0,1
442 256 m 2,16,17
 442 158 442 158 379 88 c 0,18,19
 318 20 318 20 231 20 c 256,20,21
 144 20 144 20 83 88 c 0,22,23
 20 157 20 157 20 256 c 256,24,25
 20 354 20 354 83 425 c 0,26,27
 145 493 145 493 231 493 c 0,28,29
 289 493 289 493 335 463 c 2,30,31
 335 463 335 463 366 443 c 1,32,-1
 366 480 l 1,33,-1
 366 513 l 2,34,35
 366 611 366 611 428 680 c 256,36,37
 490 749 490 749 577 750 c 0,38,39
 664 750 664 750 726 681 c 0,40,41
 788 613 788 613 788 516 c 0,42,43
 788 515 788 515 788 513 c 2,44,45
 788 513 788 513 788 256 c 2,46,47
 788 158 788 158 726 88 c 0,48,49
 697 56 697 56 663 39 c 1,50,51
 670 51 670 51 677 67 c 0,52,53
 713 146 713 146 713 256 c 2,54,55
 713 256 713 256 713 513 c 2,56,57
 713 574 713 574 674 617 c 256,58,59
 635 661 635 661 579 661 c 0,60,61
 578 661 578 661 577 661 c 0,62,63
 520 661 520 661 481 617 c 256,64,65
 442 573 442 573 442 513 c 2,66,67
 442 513 442 513 442 256 c 2,16,17
20 1135 m 1,68,-1
 986 1135 l 1,69,-1
 986 1046 l 1,70,-1
 20 1046 l 1,71,-1
 20 1135 l 1,68,-1
EndSplineSet
Substitution2: "TrimCartouche" titieq_c_end
EndChar

StartChar: veva_c
Encoding: 52 -1 52
Width: 461
VWidth: 1100
GlyphClass: 2
Flags: W
AnchorPoint: "tone" 693 513 basechar 0
LayerCount: 2
Fore
SplineSet
379 88 m 0,0,1
 350 55 350 55 316 39 c 1,2,3
 324 52 324 52 330 67 c 0,4,5
 366 146 366 146 366 256 c 0,6,7
 366 317 366 317 327 360 c 0,8,9
 288 405 288 405 231 405 c 2,10,11
 231 405 231 405 20 405 c 1,12,-1
 20 513 l 2,13,14
 20 611 20 611 83 681 c 0,15,16
 111 713 111 713 145 730 c 1,17,18
 138 718 138 718 131 702 c 0,19,20
 95 623 95 623 95 513 c 2,21,22
 95 513 95 513 95 493 c 1,23,-1
 231 493 l 2,24,25
 318 493 318 493 379 425 c 0,26,27
 442 356 442 356 442 256 c 256,28,29
 442 157 442 157 379 88 c 0,0,1
20 1135 m 1,30,-1
 640 1135 l 1,31,-1
 640 1046 l 1,32,-1
 20 1046 l 1,33,-1
 20 1135 l 1,30,-1
EndSplineSet
Substitution2: "TrimCartouche" veva_c_end
EndChar

StartChar: nhanhoq_c
Encoding: 53 -1 53
Width: 461
VWidth: 1100
GlyphClass: 2
Flags: W
AnchorPoint: "tone" 231 513 basechar 0
LayerCount: 2
Fore
SplineSet
231 3 m 1025,0,-1
202 76 m 256,1,2
 223 76 223 76 237 92 c 256,3,4
 251 108 251 108 251 128 c 256,5,6
 251 149 251 149 237 164 c 0,7,8
 222 180 222 180 201 180 c 256,9,10
 181 180 181 180 167 163 c 0,11,12
 153 148 153 148 153 128 c 256,13,14
 153 107 153 107 167 92 c 256,15,16
 181 76 181 76 202 76 c 256,1,2
379 88 m 0,17,18
 324 27 324 27 251 21 c 1,19,20
 251 21 251 21 251 28 c 1,21,-1
 227 23 l 2,22,23
 215 20 215 20 202 20 c 0,24,25
 163 20 163 20 135 50 c 0,26,27
 107 81 107 81 107 125 c 0,28,29
 107 126 107 126 107 128 c 2,30,31
 107 128 107 128 107 128 c 2,32,33
 107 173 107 173 135 206 c 0,34,35
 163 236 163 236 202 236 c 256,36,37
 241 236 241 236 269 206 c 0,38,39
 286 185 286 185 293 161 c 2,40,41
 293 161 293 161 302 125 c 1,42,-1
 327 153 l 2,43,44
 366 197 366 197 366 256 c 256,45,46
 366 316 366 316 327 360 c 0,47,48
 288 405 288 405 231 405 c 256,49,50
 174 405 174 405 134 360 c 0,51,52
 102 324 102 324 96 276 c 1,53,54
 96 276 96 276 21 276 c 1,55,56
 27 361 27 361 83 425 c 0,57,58
 145 493 145 493 231 493 c 256,59,60
 318 493 318 493 379 425 c 0,61,62
 442 356 442 356 442 256 c 256,63,64
 442 156 442 156 379 88 c 0,17,18
20 1135 m 1,65,-1
 640 1135 l 1,66,-1
 640 1046 l 1,67,-1
 20 1046 l 1,68,-1
 20 1135 l 1,65,-1
EndSplineSet
Substitution2: "TrimCartouche" nhanhoq_c_end
EndChar

StartChar: shoshia_c
Encoding: 54 -1 54
Width: 461
VWidth: 1100
GlyphClass: 2
Flags: W
AnchorPoint: "tone" 231 513 basechar 0
LayerCount: 2
Fore
SplineSet
425 547 m 1,0,1
 409 507 409 507 379 473 c 0,2,3
 317 405 317 405 231 405 c 0,4,5
 174 405 174 405 135 361 c 256,6,7
 95 317 95 317 95 256 c 256,8,9
 95 195 95 195 134 153 c 0,10,11
 174 108 174 108 231 108 c 256,12,13
 288 108 288 108 327 153 c 0,14,15
 359 188 359 188 365 236 c 1,16,17
 365 236 365 236 442 236 c 1,18,-1
 442 -256 l 2,19,20
 442 -354 442 -354 379 -425 c 0,21,22
 350 -458 350 -458 316 -474 c 1,23,24
 324 -461 324 -461 330 -446 c 0,25,26
 366 -367 366 -367 366 -256 c 2,27,28
 366 -256 366 -256 366 69 c 1,29,-1
 335 50 l 2,30,31
 288 20 288 20 231 20 c 0,32,33
 144 20 144 20 83 88 c 0,34,35
 20 157 20 157 20 256 c 256,36,37
 20 354 20 354 83 425 c 0,38,39
 145 493 145 493 231 493 c 0,40,41
 348 493 348 493 425 547 c 1,0,1
20 1135 m 1,42,-1
 640 1135 l 1,43,-1
 640 1046 l 1,44,-1
 20 1046 l 1,45,-1
 20 1135 l 1,42,-1
EndSplineSet
Substitution2: "TrimCartouche" shoshia_c_end
EndChar

StartChar: chichao_c
Encoding: 55 -1 55
Width: 461
VWidth: 1100
GlyphClass: 2
Flags: W
AnchorPoint: "tone" 231 513 basechar 0
LayerCount: 2
Fore
SplineSet
425 547 m 1,0,1
 409 507 409 507 379 473 c 0,2,3
 317 405 317 405 231 405 c 0,4,5
 174 405 174 405 135 361 c 256,6,7
 95 317 95 317 95 256 c 256,8,9
 95 195 95 195 134 153 c 0,10,11
 174 108 174 108 231 108 c 0,12,13
 332 108 332 108 404 148 c 0,14,15
 415 154 415 154 425 161 c 1,16,17
 409 122 409 122 379 88 c 0,18,19
 318 20 318 20 231 20 c 256,20,21
 144 20 144 20 83 88 c 0,22,23
 20 157 20 157 20 256 c 256,24,25
 20 354 20 354 83 425 c 0,26,27
 145 493 145 493 231 493 c 0,28,29
 348 493 348 493 425 547 c 1,0,1
20 1135 m 1,30,-1
 640 1135 l 1,31,-1
 640 1046 l 1,32,-1
 20 1046 l 1,33,-1
 20 1135 l 1,30,-1
EndSplineSet
Substitution2: "TrimCartouche" chichao_c_end
EndChar

StartChar: zozeo_c
Encoding: 56 -1 56
Width: 461
VWidth: 1100
GlyphClass: 2
Flags: W
AnchorPoint: "tone" 231 513 basechar 0
LayerCount: 2
Fore
SplineSet
20 1135 m 1,0,-1
 640 1135 l 1,1,-1
 640 1046 l 1,2,-1
 20 1046 l 1,3,-1
 20 1135 l 1,0,-1
49 -128 m 2,4,5
 49 -30 49 -30 111 40 c 0,6,7
 164 98 164 98 233 106 c 2,8,9
 233 106 233 106 249 108 c 1,10,-1
 366 108 l 1,11,-1
 366 256 l 2,12,13
 366 317 366 317 327 360 c 0,14,15
 288 405 288 405 231 405 c 256,16,17
 174 405 174 405 134 360 c 0,18,19
 102 324 102 324 96 276 c 1,20,21
 96 276 96 276 21 276 c 1,22,23
 27 361 27 361 83 425 c 0,24,25
 145 493 145 493 231 493 c 256,26,27
 318 493 318 493 379 425 c 0,28,29
 442 356 442 356 442 256 c 2,30,31
 442 256 442 256 442 108 c 1,32,-1
 693 108 l 2,33,34
 794 108 794 108 866 148 c 0,35,36
 877 154 877 154 887 161 c 1,37,38
 871 122 871 122 841 88 c 0,39,40
 779 20 779 20 693 20 c 2,41,42
 693 20 693 20 442 20 c 1,43,-1
 442 -256 l 2,44,45
 442 -354 442 -354 379 -425 c 0,46,47
 350 -457 350 -457 316 -474 c 1,48,49
 323 -461 323 -461 330 -446 c 0,50,51
 366 -367 366 -367 366 -256 c 2,52,53
 366 -256 366 -256 366 20 c 1,54,-1
 260 20 l 2,55,56
 203 20 203 20 164 -24 c 256,57,58
 124 -68 124 -68 124 -128 c 2,59,60
 124 -128 124 -128 124 -256 c 2,61,62
 124 -366 124 -366 160 -446 c 0,63,64
 167 -461 167 -461 174 -473 c 1,65,66
 140 -456 140 -456 111 -425 c 0,67,68
 49 -357 49 -357 49 -259 c 0,69,70
 49 -258 49 -258 49 -256 c 2,71,72
 49 -256 49 -256 49 -128 c 2,4,5
174 -473 m 1,73,74
 206 -489 206 -489 242 -492 c 0,75,76
 245 -492 245 -492 249 -492 c 0,77,78
 285 -489 285 -489 316 -474 c 1,79,80
 288 -521 288 -521 250 -530 c 2,81,-1
 245 -532 l 1,82,-1
 240 -530 l 2,83,84
 202 -520 202 -520 174 -473 c 1,73,74
EndSplineSet
Substitution2: "TrimCartouche" zozeo_c_end
EndChar

StartChar: space_c
Encoding: 57 -1 57
Width: 461
VWidth: 1100
GlyphClass: 1
Flags: W
LayerCount: 2
Fore
SplineSet
20 1135 m 1,0,-1
 640 1135 l 1,1,-1
 640 1046 l 1,2,-1
 20 1046 l 1,3,-1
 20 1135 l 1,0,-1
EndSplineSet
Substitution2: "TrimCartouche" space_c_end
EndChar

StartChar: prefix_c
Encoding: 58 -1 58
Width: 288
VWidth: 1100
GlyphClass: 2
Flags: W
LayerCount: 2
Fore
SplineSet
178 87 m 256,0,1
 163 71 163 71 144 71 c 256,2,3
 124 71 124 71 110 88 c 256,4,5
 95 104 95 104 95 128 c 256,6,7
 95 152 95 152 109 169 c 256,8,9
 123 185 123 185 142 185 c 0,10,11
 143 185 143 185 143 185 c 2,12,13
 143 185 143 185 144 185 c 2,14,15
 164 185 164 185 178 170 c 0,16,17
 193 153 193 153 193 128 c 256,18,19
 193 103 193 103 178 87 c 256,0,1
178 343 m 0,20,21
 164 328 164 328 144 328 c 256,22,23
 124 328 124 328 110 343 c 0,24,25
 95 360 95 360 95 385 c 256,26,27
 95 409 95 409 110 426 c 256,28,29
 125 442 125 442 144 442 c 0,30,31
 164 442 164 442 178 425 c 256,32,33
 193 408 193 408 193 385 c 256,34,35
 193 361 193 361 178 343 c 0,20,21
20 1135 m 1,36,-1
 467 1135 l 1,37,-1
 467 1046 l 1,38,-1
 20 1046 l 1,39,-1
 20 1135 l 1,36,-1
EndSplineSet
Substitution2: "TrimCartouche" prefix_c_end
EndChar

StartChar: oaomo_c
Encoding: 59 -1 59
Width: 288
VWidth: 1100
GlyphClass: 2
Flags: W
LayerCount: 2
Fore
SplineSet
178 215 m 256,0,1
 163 199 163 199 144 199 c 256,2,3
 124 199 124 199 110 216 c 256,4,5
 95 232 95 232 95 256 c 256,6,7
 95 280 95 280 110 297 c 256,8,9
 125 314 125 314 144 314 c 256,10,11
 164 314 164 314 178 297 c 256,12,13
 193 280 193 280 193 256 c 256,14,15
 193 231 193 231 178 215 c 256,0,1
20 1135 m 1,16,-1
 467 1135 l 1,17,-1
 467 1046 l 1,18,-1
 20 1046 l 1,19,-1
 20 1135 l 1,16,-1
EndSplineSet
Substitution2: "TrimCartouche" oaomo_c_end
EndChar

StartChar: quote_c
Encoding: 60 -1 60
Width: 461
VWidth: 1100
GlyphClass: 2
Flags: W
LayerCount: 2
Fore
SplineSet
142 128 m 1,0,-1
 231 226 l 1,1,-1
 319 128 l 1,2,-1
 231 30 l 1,3,-1
 142 128 l 1,0,-1
142 385 m 1,4,-1
 231 483 l 1,5,-1
 319 385 l 1,6,-1
 231 286 l 1,7,-1
 142 385 l 1,4,-1
20 1135 m 1,8,-1
 640 1135 l 1,9,-1
 640 1046 l 1,10,-1
 20 1046 l 1,11,-1
 20 1135 l 1,8,-1
EndSplineSet
Substitution2: "TrimCartouche" quote_c_end
EndChar

StartChar: dotted_circle
Encoding: 61 9676 61
Width: 461
VWidth: 1100
GlyphClass: 2
Flags: W
AnchorPoint: "vv" 462 -161 basechar 0
AnchorPoint: "tone" 231 513 basechar 0
LayerCount: 2
Fore
SplineSet
243 472 m 2,0,1
 243 472 243 472 245 472 c 1,2,-1
 253 471 l 1,3,-1
 252 454 l 1,4,-1
 243 455 l 1,5,-1
 243 455 l 2,6,7
 237 455 237 455 226 455 c 256,8,9
 215 455 215 455 205 454 c 2,10,11
 205 454 205 454 198 452 c 1,12,-1
 195 469 l 1,13,14
 223 473 223 473 229 473 c 0,15,16
 239 473 239 473 243 472 c 2,0,1
402 363 m 1,17,-1
 387 354 l 1,18,19
 375 376 375 376 360 393 c 2,20,21
 360 393 360 393 355 400 c 1,22,-1
 368 411 l 1,23,-1
 374 404 l 2,24,25
 388 389 388 389 398 370 c 2,26,27
 398 371 398 371 402 363 c 1,17,-1
98 390 m 1,28,29
 82 369 82 369 74 351 c 2,30,31
 74 351 74 351 70 343 c 1,32,-1
 54 350 l 1,33,-1
 58 359 l 2,34,35
 66 376 66 376 80 393 c 2,36,37
 80 393 80 393 85 400 c 1,38,-1
 98 390 l 1,28,29
427 254 m 2,39,40
 427 235 427 235 423 212 c 2,41,42
 423 212 423 212 422 204 c 1,43,-1
 406 207 l 1,44,-1
 407 216 l 2,45,46
 410 235 410 235 410 254 c 2,47,48
 410 254 410 254 410 262 c 1,49,-1
 427 262 l 1,50,-1
 427 254 l 2,39,40
64 180 m 2,51,52
 64 180 64 180 67 171 c 1,53,-1
 51 166 l 1,54,55
 42 189 42 189 36 222 c 1,56,57
 36 222 36 222 53 225 c 1,58,59
 56 201 56 201 64 180 c 2,51,52
362 90 m 1,60,-1
 356 85 l 2,61,62
 341 71 341 71 322 60 c 2,63,64
 322 60 322 60 314 56 c 1,65,-1
 305 70 l 1,66,-1
 313 75 l 2,67,68
 329 84 329 84 343 97 c 0,69,70
 343 97 343 97 350 103 c 1,71,72
 350 103 350 103 362 90 c 1,60,-1
182 60 m 2,73,74
 182 60 182 60 191 57 c 1,75,-1
 185 41 l 1,76,77
 159 49 159 49 139 60 c 2,78,79
 139 60 139 60 131 65 c 1,80,-1
 140 79 l 1,81,-1
 148 75 l 2,82,83
 165 65 165 65 182 60 c 2,73,74
EndSplineSet
EndChar

StartChar: bubue_c_end
Encoding: 62 -1 62
Width: 461
VWidth: 1100
GlyphClass: 2
Flags: W
AnchorPoint: "vv" 462 -161 basechar 0
AnchorPoint: "tone" 231 513 basechar 0
LayerCount: 2
Fore
SplineSet
379 88 m 0,0,1
 350 55 350 55 316 39 c 1,2,3
 324 52 324 52 330 67 c 0,4,5
 366 146 366 146 366 256 c 0,6,7
 366 317 366 317 327 360 c 0,8,9
 288 405 288 405 231 405 c 256,10,11
 174 405 174 405 134 360 c 0,12,13
 102 324 102 324 96 276 c 1,14,15
 96 276 96 276 21 276 c 1,16,17
 27 361 27 361 83 425 c 0,18,19
 145 493 145 493 231 493 c 256,20,21
 318 493 318 493 379 425 c 0,22,23
 442 356 442 356 442 256 c 256,24,25
 442 157 442 157 379 88 c 0,0,1
20 1135 m 1,26,-1
 442 1135 l 1,27,-1
 442 1046 l 1,28,-1
 20 1046 l 1,29,-1
 20 1135 l 1,26,-1
EndSplineSet
EndChar

StartChar: cecoa_c_end
Encoding: 63 -1 63
Width: 461
VWidth: 1100
GlyphClass: 2
Flags: W
AnchorPoint: "tone" 231 513 basechar 0
AnchorPoint: "vv" 462 -161 basechar 0
LayerCount: 2
Fore
SplineSet
231 108 m 0,0,1
 332 108 332 108 404 148 c 0,2,3
 415 154 415 154 425 161 c 1,4,5
 409 122 409 122 379 88 c 0,6,7
 318 20 318 20 231 20 c 256,8,9
 144 20 144 20 83 88 c 0,10,11
 20 157 20 157 20 256 c 256,12,13
 20 354 20 354 83 425 c 0,14,15
 138 486 138 486 211 492 c 1,16,17
 211 492 211 492 211 403 c 1,18,19
 167 396 167 396 134 360 c 0,20,21
 95 316 95 316 95 256 c 256,22,23
 95 195 95 195 134 153 c 0,24,25
 174 108 174 108 231 108 c 0,0,1
20 1135 m 1,26,-1
 442 1135 l 1,27,-1
 442 1046 l 1,28,-1
 20 1046 l 1,29,-1
 20 1135 l 1,26,-1
EndSplineSet
EndChar

StartChar: dudeo_c_end
Encoding: 64 -1 64
Width: 461
VWidth: 1100
GlyphClass: 2
Flags: W
AnchorPoint: "tone" 231 513 basechar 0
LayerCount: 2
Fore
SplineSet
202 333 m 128,-1,1
 223 333 223 333 237 348 c 0,2,3
 251 363 251 363 251 384.5 c 128,-1,4
 251 406 251 406 237 421 c 0,5,6
 222 437 222 437 201.5 437 c 128,-1,7
 181 437 181 437 167 420 c 0,8,9
 153 405 153 405 153 384.5 c 128,-1,10
 153 364 153 364 167 348.5 c 128,-1,0
 181 333 181 333 202 333 c 128,-1,1
379 88 m 0,11,12
 318 20 318 20 231 20 c 128,-1,13
 144 20 144 20 82 88 c 0,14,15
 52 121 52 121 37 160 c 1,16,17
 46 154 46 154 57 148 c 0,18,19
 128 108 128 108 226 108 c 0,20,21
 229 108 229 108 231 108 c 0,22,23
 288 108 288 108 327 153 c 0,24,25
 366 198 366 198 366 256 c 0,26,27
 366 317 366 317 327 360 c 2,28,29
 327 360 327 360 302 388 c 1,30,-1
 293 352 l 2,31,32
 286 327 286 327 269 307 c 0,33,34
 241 276 241 276 202 276 c 128,-1,35
 163 276 163 276 135 307 c 0,36,37
 107 339 107 339 107 382 c 0,38,39
 107 383 107 383 107 385 c 2,40,41
 107 385 107 385 107 385 c 2,42,43
 107 430 107 430 135 462 c 0,44,45
 166 496 166 496 202 493 c 0,46,47
 214 491 214 491 226 490 c 2,48,49
 226 490 226 490 202 493 c 1,50,-1
 202 493 l 5,51,52
 326 483 326 483 379 425 c 0,53,54
 442 355 442 355 442 256.5 c 128,-1,55
 442 158 442 158 379 88 c 0,11,12
20 1135 m 1,56,-1
 442 1135 l 1,57,-1
 442 1046 l 1,58,-1
 20 1046 l 1,59,-1
 20 1135 l 1,56,-1
EndSplineSet
EndChar

StartChar: fofuaq_c_end
Encoding: 65 -1 65
Width: 461
VWidth: 1100
GlyphClass: 2
Flags: W
AnchorPoint: "tone" 231 513 basechar 0
AnchorPoint: "vv" 462 -161 basechar 0
LayerCount: 2
Fore
SplineSet
366 -256 m 2,0,1
 366 -256 366 -256 366 256 c 2,2,3
 366 317 366 317 327 360 c 0,4,5
 288 405 288 405 231 405 c 256,6,7
 174 405 174 405 134 360 c 0,8,9
 102 324 102 324 96 276 c 1,10,11
 96 276 96 276 21 276 c 1,12,13
 27 361 27 361 83 425 c 0,14,15
 145 493 145 493 231 493 c 256,16,17
 318 493 318 493 379 425 c 0,18,19
 442 356 442 356 442 256 c 2,20,21
 442 256 442 256 442 -256 c 2,22,23
 442 -354 442 -354 379 -425 c 0,24,25
 350 -458 350 -458 316 -474 c 1,26,27
 324 -461 324 -461 330 -446 c 0,28,29
 366 -367 366 -367 366 -256 c 2,0,1
20 1135 m 1,30,-1
 442 1135 l 1,31,-1
 442 1046 l 1,32,-1
 20 1046 l 1,33,-1
 20 1135 l 1,30,-1
EndSplineSet
EndChar

StartChar: gugui_c_end
Encoding: 66 -1 66
Width: 605
VWidth: 1100
GlyphClass: 2
Flags: W
AnchorPoint: "tone" 231 513 basechar 0
AnchorPoint: "vv" 577 -161 basechar 0
LayerCount: 2
Fore
SplineSet
577 108 m 0,0,1
 621 108 621 108 657 137 c 1,2,3
 657 137 657 137 714 75 c 1,4,5
 689 52 689 52 659 38 c 0,6,7
 619 20 619 20 577 20 c 0,8,9
 490 20 490 20 429 88 c 0,10,11
 423 95 423 95 420 99 c 2,12,13
 420 99 420 99 405 120 c 1,14,-1
 389 100 l 1,15,-1
 379 88 l 1,16,17
 318 20 318 20 231 20 c 256,18,19
 144 20 144 20 83 88 c 0,20,21
 20 157 20 157 20 256 c 256,22,23
 20 354 20 354 83 425 c 0,24,25
 138 486 138 486 211 492 c 1,26,27
 211 492 211 492 211 403 c 1,28,29
 167 396 167 396 134 360 c 0,30,31
 95 316 95 316 95 256 c 256,32,33
 95 195 95 195 134 153 c 0,34,35
 174 108 174 108 231 108 c 256,36,37
 288 108 288 108 327 153 c 0,38,39
 359 188 359 188 365 236 c 1,40,41
 365 236 365 236 443 236 c 1,42,43
 449 188 449 188 481 153 c 0,44,45
 521 108 521 108 577 108 c 0,0,1
20 1135 m 1,46,-1
 586 1135 l 1,47,-1
 586 1046 l 1,48,-1
 20 1046 l 1,49,-1
 20 1135 l 1,46,-1
EndSplineSet
EndChar

StartChar: hehaq_c_end
Encoding: 67 -1 67
Width: 461
VWidth: 1100
GlyphClass: 2
Flags: W
AnchorPoint: "tone" 231 513 basechar 0
LayerCount: 2
Fore
SplineSet
251 20 m 1,0,-1
 251 108 l 1,1,-1
 366 108 l 1,2,-1
 366 256 l 2,3,4
 366 317 366 317 327 360 c 0,5,6
 288 405 288 405 231 405 c 256,7,8
 174 405 174 405 134 360 c 0,9,10
 102 324 102 324 96 276 c 1,11,12
 96 276 96 276 21 276 c 1,13,14
 27 361 27 361 83 425 c 0,15,16
 145 493 145 493 231 493 c 256,17,18
 318 493 318 493 379 425 c 0,19,20
 442 356 442 356 442 256 c 2,21,22
 442 256 442 256 442 108 c 1,23,-1
 693 108 l 2,24,25
 794 108 794 108 866 148 c 0,26,27
 877 154 877 154 887 161 c 1,28,29
 871 122 871 122 841 88 c 0,30,31
 779 20 779 20 693 20 c 2,32,33
 693 20 693 20 442 20 c 1,34,-1
 442 -256 l 2,35,36
 442 -354 442 -354 379 -425 c 0,37,38
 350 -458 350 -458 316 -474 c 1,39,40
 324 -461 324 -461 330 -446 c 0,41,42
 366 -367 366 -367 366 -256 c 2,43,44
 366 -256 366 -256 366 20 c 1,45,-1
 251 20 l 1,0,-1
20 1135 m 1,46,-1
 442 1135 l 1,47,-1
 442 1046 l 1,48,-1
 20 1046 l 1,49,-1
 20 1135 l 1,46,-1
EndSplineSet
EndChar

StartChar: jujuo_c_end
Encoding: 68 -1 68
Width: 808
VWidth: 1100
GlyphClass: 2
Flags: W
CounterMasks: 1 38
AnchorPoint: "tone" 231 513 basechar 0
LayerCount: 2
Fore
SplineSet
577 405 m 256,0,1
 520 405 520 405 481 360 c 0,2,3
 449 324 449 324 443 276 c 1,4,5
 443 276 443 276 365 276 c 1,6,7
 359 324 359 324 327 360 c 0,8,9
 288 405 288 405 231 405 c 256,10,11
 174 405 174 405 134 360 c 0,12,13
 102 324 102 324 96 276 c 1,14,15
 96 276 96 276 21 276 c 1,16,17
 27 361 27 361 83 425 c 0,18,19
 145 493 145 493 231 493 c 256,20,21
 318 493 318 493 379 425 c 0,22,23
 385 418 385 418 388 414 c 2,24,25
 388 414 388 414 403 393 c 1,26,-1
 419 413 l 1,27,-1
 429 425 l 1,28,29
 491 493 491 493 578 493 c 256,30,31
 665 493 665 493 726 425 c 256,32,33
 788 357 788 357 788 259 c 0,34,35
 788 258 788 258 788 256 c 2,36,37
 788 256 788 256 788 256 c 2,38,39
 788 158 788 158 726 88 c 0,40,41
 697 56 697 56 663 39 c 1,42,43
 670 51 670 51 677 67 c 0,44,45
 713 146 713 146 713 256 c 0,46,47
 713 317 713 317 673 361 c 256,48,49
 634 405 634 405 577 405 c 256,0,1
20 1135 m 1,50,-1
 788 1135 l 1,51,-1
 788 1046 l 1,52,-1
 20 1046 l 1,53,-1
 20 1135 l 1,50,-1
EndSplineSet
EndChar

StartChar: kikue_c_end
Encoding: 69 -1 69
Width: 461
VWidth: 1100
GlyphClass: 2
Flags: W
AnchorPoint: "tone" 231 513 basechar 0
LayerCount: 2
Fore
SplineSet
231 -314 m 256,0,1
 211 -314 211 -314 197 -297 c 256,2,3
 182 -280 182 -280 182 -256 c 256,4,5
 182 -232 182 -232 197 -215 c 256,6,7
 212 -199 212 -199 231 -199 c 0,8,9
 251 -199 251 -199 265 -216 c 256,10,11
 280 -232 280 -232 280 -256 c 256,12,13
 280 -280 280 -280 265 -297 c 256,14,15
 251 -314 251 -314 231 -314 c 256,0,1
231 108 m 0,16,17
 332 108 332 108 404 148 c 0,18,19
 415 154 415 154 425 161 c 1,20,21
 409 122 409 122 379 88 c 0,22,23
 318 20 318 20 231 20 c 256,24,25
 144 20 144 20 83 88 c 0,26,27
 20 157 20 157 20 256 c 256,28,29
 20 354 20 354 83 425 c 0,30,31
 138 486 138 486 211 492 c 1,32,33
 211 492 211 492 211 403 c 1,34,35
 167 396 167 396 134 360 c 0,36,37
 95 316 95 316 95 256 c 256,38,39
 95 195 95 195 134 153 c 0,40,41
 174 108 174 108 231 108 c 0,16,17
20 1135 m 1,42,-1
 442 1135 l 1,43,-1
 442 1046 l 1,44,-1
 20 1046 l 1,45,-1
 20 1135 l 1,42,-1
EndSplineSet
EndChar

StartChar: laoliq_c_end
Encoding: 70 -1 70
Width: 923
VWidth: 1100
GlyphClass: 2
Flags: W
AnchorPoint: "tone" 231 513 basechar 0
LayerCount: 2
Fore
SplineSet
528 -256 m 0,0,1
 528 -232 528 -232 543 -216 c 2,2,3
 543 -216 543 -216 544 -215 c 2,4,5
 558 -199 558 -199 578 -199 c 256,6,7
 597 -199 597 -199 612 -216 c 256,8,9
 627 -233 627 -233 627 -256 c 0,10,11
 627 -280 627 -280 612 -297 c 256,12,13
 597 -314 597 -314 577 -314 c 0,14,15
 557 -314 557 -314 543 -297 c 256,16,17
 529 -281 529 -281 528 -256 c 0,0,1
904 20 m 1,18,-1
 303 20 l 1,19,20
 318 39 318 39 330 67 c 0,21,22
 366 146 366 146 366 256 c 0,23,24
 366 317 366 317 327 360 c 0,25,26
 288 405 288 405 231 405 c 256,27,28
 174 405 174 405 134 360 c 0,29,30
 102 324 102 324 96 276 c 1,31,32
 96 276 96 276 21 276 c 1,33,34
 27 361 27 361 83 425 c 0,35,36
 145 493 145 493 231 493 c 256,37,38
 318 493 318 493 379 425 c 0,39,40
 442 356 442 356 442 256 c 0,41,42
 442 190 442 190 413 138 c 2,43,44
 413 138 413 138 397 108 c 1,45,-1
 828 108 l 1,46,-1
 828 256 l 2,47,48
 828 316 828 316 790 360 c 0,49,50
 750 405 750 405 693 405 c 0,51,52
 636 405 636 405 596 360 c 0,53,54
 564 324 564 324 558 276 c 1,55,56
 558 276 558 276 483 276 c 1,57,58
 489 361 489 361 545 425 c 0,59,60
 607 493 607 493 693 493 c 256,61,62
 780 493 780 493 841 425 c 0,63,64
 904 356 904 356 904 256 c 2,65,66
 904 256 904 256 904 20 c 1,18,-1
20 1135 m 1,67,-1
 904 1135 l 1,68,-1
 904 1046 l 1,69,-1
 20 1046 l 1,70,-1
 20 1135 l 1,67,-1
EndSplineSet
EndChar

StartChar: mamei_c_end
Encoding: 71 -1 71
Width: 1385
VWidth: 1100
GlyphClass: 2
Flags: W
AnchorPoint: "tone" 231 513 basechar 0
LayerCount: 2
Fore
SplineSet
1366 -256 m 2,0,1
 1366 -354 1366 -354 1303 -425 c 0,2,3
 1274 -457 1274 -457 1241 -473 c 1,4,5
 1248 -461 1248 -461 1255 -446 c 0,6,7
 1290 -369 1290 -369 1290 -262 c 0,8,9
 1290 -259 1290 -259 1290 -256 c 2,10,11
 1290 -256 1290 -256 1290 20 c 1,12,-1
 303 20 l 1,13,14
 318 39 318 39 330 67 c 0,15,16
 366 146 366 146 366 256 c 0,17,18
 366 317 366 317 327 360 c 0,19,20
 288 405 288 405 231 405 c 256,21,22
 174 405 174 405 134 360 c 0,23,24
 102 324 102 324 96 276 c 1,25,26
 96 276 96 276 21 276 c 1,27,28
 27 361 27 361 83 425 c 0,29,30
 145 493 145 493 231 493 c 256,31,32
 318 493 318 493 379 425 c 0,33,34
 442 356 442 356 442 256 c 0,35,36
 442 190 442 190 413 138 c 2,37,38
 413 138 413 138 397 108 c 1,39,-1
 828 108 l 1,40,-1
 828 256 l 2,41,42
 828 316 828 316 790 360 c 0,43,44
 750 405 750 405 693 405 c 0,45,46
 636 405 636 405 596 360 c 0,47,48
 564 324 564 324 558 276 c 1,49,50
 558 276 558 276 483 276 c 1,51,52
 489 361 489 361 545 425 c 0,53,54
 607 493 607 493 693 493 c 256,55,56
 780 493 780 493 841 425 c 0,57,58
 904 356 904 356 904 256 c 2,59,60
 904 256 904 256 904 108 c 1,61,-1
 1290 108 l 1,62,-1
 1290 256 l 2,63,64
 1290 316 1290 316 1252 360 c 0,65,66
 1212 405 1212 405 1155 405 c 0,67,68
 1098 405 1098 405 1058 360 c 0,69,70
 1026 324 1026 324 1020 276 c 1,71,72
 1020 276 1020 276 945 276 c 1,73,74
 951 361 951 361 1006 425 c 0,75,76
 1068 493 1068 493 1155 493 c 256,77,78
 1242 493 1242 493 1303 425 c 0,79,80
 1366 356 1366 356 1366 256 c 2,81,82
 1366 256 1366 256 1366 -256 c 2,0,1
20 1135 m 1,83,-1
 1366 1135 l 1,84,-1
 1366 1046 l 1,85,-1
 20 1046 l 1,86,-1
 20 1135 l 1,83,-1
EndSplineSet
EndChar

StartChar: nanaq_c_end
Encoding: 72 -1 72
Width: 461
VWidth: 1100
GlyphClass: 2
Flags: W
AnchorPoint: "tone" 231 513 basechar 0
LayerCount: 2
Fore
SplineSet
231 405 m 256,0,1
 174 405 174 405 135 361 c 256,2,3
 95 317 95 317 95 256 c 256,4,5
 95 195 95 195 134 153 c 0,6,7
 174 108 174 108 231 108 c 256,8,9
 288 108 288 108 327 153 c 0,10,11
 366 196 366 196 366 256 c 256,12,13
 366 317 366 317 327 360 c 0,14,15
 288 405 288 405 231 405 c 256,0,1
379 88 m 0,16,17
 318 20 318 20 231 20 c 256,18,19
 144 20 144 20 83 88 c 0,20,21
 20 157 20 157 20 256 c 256,22,23
 20 354 20 354 83 425 c 0,24,25
 145 493 145 493 231 493 c 256,26,27
 318 493 318 493 379 425 c 0,28,29
 442 356 442 356 442 256 c 256,30,31
 442 157 442 157 379 88 c 0,16,17
425 675 m 1,32,33
 409 635 409 635 379 601 c 0,34,35
 325 540 325 540 251 534 c 1,36,37
 251 534 251 534 251 621 c 1,38,39
 355 626 355 626 425 675 c 1,32,33
20 1135 m 1,40,-1
 442 1135 l 1,41,-1
 442 1046 l 1,42,-1
 20 1046 l 1,43,-1
 20 1135 l 1,40,-1
EndSplineSet
EndChar

StartChar: pipoq_c_end
Encoding: 73 -1 73
Width: 461
VWidth: 1100
GlyphClass: 2
Flags: W
AnchorPoint: "tone" 231 513 basechar 0
LayerCount: 2
Fore
SplineSet
231 405 m 256,0,1
 174 405 174 405 135 361 c 256,2,3
 95 317 95 317 95 256 c 256,4,5
 95 195 95 195 134 153 c 0,6,7
 174 108 174 108 231 108 c 256,8,9
 288 108 288 108 327 153 c 0,10,11
 366 196 366 196 366 256 c 256,12,13
 366 317 366 317 327 360 c 0,14,15
 288 405 288 405 231 405 c 256,0,1
442 -256 m 2,16,17
 442 -354 442 -354 379 -425 c 0,18,19
 350 -458 350 -458 316 -474 c 1,20,21
 324 -461 324 -461 330 -446 c 0,22,23
 366 -367 366 -367 366 -256 c 2,24,25
 366 -256 366 -256 366 69 c 1,26,-1
 335 50 l 2,27,28
 288 20 288 20 231 20 c 0,29,30
 144 20 144 20 83 88 c 0,31,32
 20 157 20 157 20 256 c 256,33,34
 20 354 20 354 83 425 c 0,35,36
 145 493 145 493 231 493 c 256,37,38
 318 493 318 493 379 425 c 0,39,40
 442 356 442 356 442 256 c 2,41,42
 442 256 442 256 442 -256 c 2,16,17
20 1135 m 1,43,-1
 442 1135 l 1,44,-1
 442 1046 l 1,45,-1
 20 1046 l 1,46,-1
 20 1135 l 1,43,-1
EndSplineSet
EndChar

StartChar: aqaq_c_end
Encoding: 74 -1 74
Width: 461
VWidth: 1100
GlyphClass: 2
Flags: W
AnchorPoint: "tone" 231 513 basechar 0
LayerCount: 2
Fore
SplineSet
366 69 m 1,0,-1
 335 50 l 2,1,2
 288 20 288 20 231 20 c 0,3,4
 144 20 144 20 83 88 c 0,5,6
 20 157 20 157 20 256 c 256,7,8
 20 354 20 354 83 425 c 0,9,10
 138 486 138 486 211 492 c 1,11,12
 211 492 211 492 211 403 c 1,13,14
 167 396 167 396 134 360 c 0,15,16
 95 316 95 316 95 256 c 256,17,18
 95 195 95 195 134 153 c 0,19,20
 174 108 174 108 231 108 c 256,21,22
 288 108 288 108 327 153 c 0,23,24
 359 188 359 188 365 236 c 1,25,26
 365 236 365 236 442 236 c 1,27,-1
 442 -256 l 2,28,29
 442 -354 442 -354 379 -425 c 0,30,31
 350 -458 350 -458 316 -474 c 1,32,33
 324 -461 324 -461 330 -446 c 0,34,35
 366 -367 366 -367 366 -256 c 2,36,37
 366 -256 366 -256 366 69 c 1,0,-1
20 1135 m 1,38,-1
 442 1135 l 1,39,-1
 442 1046 l 1,40,-1
 20 1046 l 1,41,-1
 20 1135 l 1,38,-1
EndSplineSet
EndChar

StartChar: rairua_c_end
Encoding: 75 -1 75
Width: 923
VWidth: 1100
Flags: W
AnchorPoint: "tone" 231 513 basechar 0
LayerCount: 2
Fore
SplineSet
904 -256 m 2,0,1
 904 -354 904 -354 841 -425 c 0,2,3
 812 -457 812 -457 779 -473 c 1,4,5
 786 -461 786 -461 793 -446 c 0,6,7
 828 -369 828 -369 828 -262 c 0,8,9
 828 -259 828 -259 828 -256 c 2,10,11
 828 -256 828 -256 828 20 c 1,12,-1
 303 20 l 1,13,14
 318 39 318 39 330 67 c 0,15,16
 366 146 366 146 366 256 c 0,17,18
 366 317 366 317 327 360 c 0,19,20
 288 405 288 405 231 405 c 256,21,22
 174 405 174 405 134 360 c 0,23,24
 102 324 102 324 96 276 c 1,25,26
 96 276 96 276 21 276 c 1,27,28
 27 361 27 361 83 425 c 0,29,30
 145 493 145 493 231 493 c 256,31,32
 318 493 318 493 379 425 c 0,33,34
 442 356 442 356 442 256 c 0,35,36
 442 190 442 190 413 138 c 2,37,38
 413 138 413 138 397 108 c 1,39,-1
 828 108 l 1,40,-1
 828 256 l 2,41,42
 828 316 828 316 790 360 c 0,43,44
 750 405 750 405 693 405 c 0,45,46
 636 405 636 405 596 360 c 0,47,48
 564 324 564 324 558 276 c 1,49,50
 558 276 558 276 483 276 c 1,51,52
 489 361 489 361 545 425 c 0,53,54
 607 493 607 493 693 493 c 256,55,56
 780 493 780 493 841 425 c 0,57,58
 904 356 904 356 904 256 c 2,59,60
 904 256 904 256 904 -256 c 2,0,1
20 1135 m 1,61,-1
 904 1135 l 1,62,-1
 904 1046 l 1,63,-1
 20 1046 l 1,64,-1
 20 1135 l 1,61,-1
EndSplineSet
EndChar

StartChar: saqseoq_c_end
Encoding: 76 -1 76
Width: 461
VWidth: 1100
GlyphClass: 2
Flags: W
AnchorPoint: "tone" 231 513 basechar 0
AnchorPoint: "vv" 462 -161 basechar 0
LayerCount: 2
Fore
SplineSet
231 405 m 256,0,1
 174 405 174 405 135 361 c 256,2,3
 95 317 95 317 95 256 c 256,4,5
 95 195 95 195 134 153 c 0,6,7
 174 108 174 108 231 108 c 256,8,9
 288 108 288 108 327 153 c 0,10,11
 366 196 366 196 366 256 c 256,12,13
 366 317 366 317 327 360 c 0,14,15
 288 405 288 405 231 405 c 256,0,1
379 88 m 0,16,17
 318 20 318 20 231 20 c 256,18,19
 144 20 144 20 83 88 c 0,20,21
 20 157 20 157 20 256 c 256,22,23
 20 354 20 354 83 425 c 0,24,25
 145 493 145 493 231 493 c 256,26,27
 318 493 318 493 379 425 c 0,28,29
 442 356 442 356 442 256 c 256,30,31
 442 157 442 157 379 88 c 0,16,17
20 1135 m 1,32,-1
 442 1135 l 1,33,-1
 442 1046 l 1,34,-1
 20 1046 l 1,35,-1
 20 1135 l 1,32,-1
EndSplineSet
EndChar

StartChar: titieq_c_end
Encoding: 77 -1 77
Width: 808
VWidth: 1100
GlyphClass: 2
Flags: W
CounterMasks: 1 0e
AnchorPoint: "tone" 231 513 basechar 0
LayerCount: 2
Fore
SplineSet
231 405 m 256,0,1
 174 405 174 405 135 361 c 256,2,3
 95 317 95 317 95 256 c 256,4,5
 95 195 95 195 134 153 c 0,6,7
 174 108 174 108 231 108 c 256,8,9
 288 108 288 108 327 153 c 0,10,11
 366 196 366 196 366 256 c 256,12,13
 366 317 366 317 327 360 c 0,14,15
 288 405 288 405 231 405 c 256,0,1
442 256 m 2,16,17
 442 158 442 158 379 88 c 0,18,19
 318 20 318 20 231 20 c 256,20,21
 144 20 144 20 83 88 c 0,22,23
 20 157 20 157 20 256 c 256,24,25
 20 354 20 354 83 425 c 0,26,27
 145 493 145 493 231 493 c 0,28,29
 289 493 289 493 335 463 c 2,30,31
 335 463 335 463 366 443 c 1,32,-1
 366 480 l 1,33,-1
 366 513 l 2,34,35
 366 611 366 611 428 680 c 256,36,37
 490 749 490 749 577 750 c 0,38,39
 664 750 664 750 726 681 c 0,40,41
 788 613 788 613 788 516 c 0,42,43
 788 515 788 515 788 513 c 2,44,45
 788 513 788 513 788 256 c 2,46,47
 788 158 788 158 726 88 c 0,48,49
 697 56 697 56 663 39 c 1,50,51
 670 51 670 51 677 67 c 0,52,53
 713 146 713 146 713 256 c 2,54,55
 713 256 713 256 713 513 c 2,56,57
 713 574 713 574 674 617 c 256,58,59
 635 661 635 661 579 661 c 0,60,61
 578 661 578 661 577 661 c 0,62,63
 520 661 520 661 481 617 c 256,64,65
 442 573 442 573 442 513 c 2,66,67
 442 513 442 513 442 256 c 2,16,17
20 1135 m 1,68,-1
 788 1135 l 1,69,-1
 788 1046 l 1,70,-1
 20 1046 l 1,71,-1
 20 1135 l 1,68,-1
EndSplineSet
EndChar

StartChar: veva_c_end
Encoding: 78 -1 78
Width: 461
VWidth: 1100
GlyphClass: 2
Flags: W
AnchorPoint: "tone" 693 513 basechar 0
LayerCount: 2
Fore
SplineSet
379 88 m 0,0,1
 350 55 350 55 316 39 c 1,2,3
 324 52 324 52 330 67 c 0,4,5
 366 146 366 146 366 256 c 0,6,7
 366 317 366 317 327 360 c 0,8,9
 288 405 288 405 231 405 c 2,10,11
 231 405 231 405 20 405 c 1,12,-1
 20 513 l 2,13,14
 20 611 20 611 83 681 c 0,15,16
 111 713 111 713 145 730 c 1,17,18
 138 718 138 718 131 702 c 0,19,20
 95 623 95 623 95 513 c 2,21,22
 95 513 95 513 95 493 c 1,23,-1
 231 493 l 2,24,25
 318 493 318 493 379 425 c 0,26,27
 442 356 442 356 442 256 c 256,28,29
 442 157 442 157 379 88 c 0,0,1
20 1135 m 1,30,-1
 442 1135 l 1,31,-1
 442 1046 l 1,32,-1
 20 1046 l 1,33,-1
 20 1135 l 1,30,-1
EndSplineSet
EndChar

StartChar: nhanhoq_c_end
Encoding: 79 -1 79
Width: 461
VWidth: 1100
GlyphClass: 2
Flags: W
AnchorPoint: "tone" 231 513 basechar 0
LayerCount: 2
Fore
SplineSet
231 3 m 1025,0,-1
202 76 m 256,1,2
 223 76 223 76 237 92 c 256,3,4
 251 108 251 108 251 128 c 256,5,6
 251 149 251 149 237 164 c 0,7,8
 222 180 222 180 201 180 c 256,9,10
 181 180 181 180 167 163 c 0,11,12
 153 148 153 148 153 128 c 256,13,14
 153 107 153 107 167 92 c 256,15,16
 181 76 181 76 202 76 c 256,1,2
379 88 m 0,17,18
 324 27 324 27 251 21 c 1,19,20
 251 21 251 21 251 28 c 1,21,-1
 227 23 l 2,22,23
 215 20 215 20 202 20 c 0,24,25
 163 20 163 20 135 50 c 0,26,27
 107 81 107 81 107 125 c 0,28,29
 107 126 107 126 107 128 c 2,30,31
 107 128 107 128 107 128 c 2,32,33
 107 173 107 173 135 206 c 0,34,35
 163 236 163 236 202 236 c 256,36,37
 241 236 241 236 269 206 c 0,38,39
 286 185 286 185 293 161 c 2,40,41
 293 161 293 161 302 125 c 1,42,-1
 327 153 l 2,43,44
 366 197 366 197 366 256 c 256,45,46
 366 316 366 316 327 360 c 0,47,48
 288 405 288 405 231 405 c 256,49,50
 174 405 174 405 134 360 c 0,51,52
 102 324 102 324 96 276 c 1,53,54
 96 276 96 276 21 276 c 1,55,56
 27 361 27 361 83 425 c 0,57,58
 145 493 145 493 231 493 c 256,59,60
 318 493 318 493 379 425 c 0,61,62
 442 356 442 356 442 256 c 256,63,64
 442 156 442 156 379 88 c 0,17,18
20 1135 m 1,65,-1
 442 1135 l 1,66,-1
 442 1046 l 1,67,-1
 20 1046 l 1,68,-1
 20 1135 l 1,65,-1
EndSplineSet
EndChar

StartChar: shoshia_c_end
Encoding: 80 -1 80
Width: 461
VWidth: 1100
GlyphClass: 2
Flags: W
AnchorPoint: "tone" 231 513 basechar 0
LayerCount: 2
Fore
SplineSet
425 547 m 1,0,1
 409 507 409 507 379 473 c 0,2,3
 317 405 317 405 231 405 c 0,4,5
 174 405 174 405 135 361 c 256,6,7
 95 317 95 317 95 256 c 256,8,9
 95 195 95 195 134 153 c 0,10,11
 174 108 174 108 231 108 c 256,12,13
 288 108 288 108 327 153 c 0,14,15
 359 188 359 188 365 236 c 1,16,17
 365 236 365 236 442 236 c 1,18,-1
 442 -256 l 2,19,20
 442 -354 442 -354 379 -425 c 0,21,22
 350 -458 350 -458 316 -474 c 1,23,24
 324 -461 324 -461 330 -446 c 0,25,26
 366 -367 366 -367 366 -256 c 2,27,28
 366 -256 366 -256 366 69 c 1,29,-1
 335 50 l 2,30,31
 288 20 288 20 231 20 c 0,32,33
 144 20 144 20 83 88 c 0,34,35
 20 157 20 157 20 256 c 256,36,37
 20 354 20 354 83 425 c 0,38,39
 145 493 145 493 231 493 c 0,40,41
 348 493 348 493 425 547 c 1,0,1
20 1135 m 1,42,-1
 442 1135 l 1,43,-1
 442 1046 l 1,44,-1
 20 1046 l 1,45,-1
 20 1135 l 1,42,-1
EndSplineSet
EndChar

StartChar: chichao_c_end
Encoding: 81 -1 81
Width: 461
VWidth: 1100
GlyphClass: 2
Flags: W
AnchorPoint: "tone" 231 513 basechar 0
LayerCount: 2
Fore
SplineSet
425 547 m 1,0,1
 409 507 409 507 379 473 c 0,2,3
 317 405 317 405 231 405 c 0,4,5
 174 405 174 405 135 361 c 256,6,7
 95 317 95 317 95 256 c 256,8,9
 95 195 95 195 134 153 c 0,10,11
 174 108 174 108 231 108 c 0,12,13
 332 108 332 108 404 148 c 0,14,15
 415 154 415 154 425 161 c 1,16,17
 409 122 409 122 379 88 c 0,18,19
 318 20 318 20 231 20 c 256,20,21
 144 20 144 20 83 88 c 0,22,23
 20 157 20 157 20 256 c 256,24,25
 20 354 20 354 83 425 c 0,26,27
 145 493 145 493 231 493 c 0,28,29
 348 493 348 493 425 547 c 1,0,1
20 1135 m 1,30,-1
 442 1135 l 1,31,-1
 442 1046 l 1,32,-1
 20 1046 l 1,33,-1
 20 1135 l 1,30,-1
EndSplineSet
EndChar

StartChar: zozeo_c_end
Encoding: 82 -1 82
Width: 461
VWidth: 1100
GlyphClass: 2
Flags: W
AnchorPoint: "tone" 231 513 basechar 0
LayerCount: 2
Fore
SplineSet
20 1135 m 1,0,-1
 442 1135 l 1,1,-1
 442 1046 l 1,2,-1
 20 1046 l 1,3,-1
 20 1135 l 1,0,-1
49 -128 m 2,4,5
 49 -30 49 -30 111 40 c 0,6,7
 164 98 164 98 233 106 c 2,8,9
 233 106 233 106 249 108 c 1,10,-1
 366 108 l 1,11,-1
 366 256 l 2,12,13
 366 317 366 317 327 360 c 0,14,15
 288 405 288 405 231 405 c 256,16,17
 174 405 174 405 134 360 c 0,18,19
 102 324 102 324 96 276 c 1,20,21
 96 276 96 276 21 276 c 1,22,23
 27 361 27 361 83 425 c 0,24,25
 145 493 145 493 231 493 c 256,26,27
 318 493 318 493 379 425 c 0,28,29
 442 356 442 356 442 256 c 2,30,31
 442 256 442 256 442 108 c 1,32,-1
 693 108 l 2,33,34
 794 108 794 108 866 148 c 0,35,36
 877 154 877 154 887 161 c 1,37,38
 871 122 871 122 841 88 c 0,39,40
 779 20 779 20 693 20 c 2,41,42
 693 20 693 20 442 20 c 1,43,-1
 442 -256 l 2,44,45
 442 -354 442 -354 379 -425 c 0,46,47
 350 -457 350 -457 316 -474 c 1,48,49
 323 -461 323 -461 330 -446 c 0,50,51
 366 -367 366 -367 366 -256 c 2,52,53
 366 -256 366 -256 366 20 c 1,54,-1
 260 20 l 2,55,56
 203 20 203 20 164 -24 c 256,57,58
 124 -68 124 -68 124 -128 c 2,59,60
 124 -128 124 -128 124 -256 c 2,61,62
 124 -366 124 -366 160 -446 c 0,63,64
 167 -461 167 -461 174 -473 c 1,65,66
 140 -456 140 -456 111 -425 c 0,67,68
 49 -357 49 -357 49 -259 c 0,69,70
 49 -258 49 -258 49 -256 c 2,71,72
 49 -256 49 -256 49 -128 c 2,4,5
174 -473 m 1,73,74
 206 -489 206 -489 242 -492 c 0,75,76
 245 -492 245 -492 249 -492 c 0,77,78
 285 -489 285 -489 316 -474 c 1,79,80
 288 -521 288 -521 250 -530 c 2,81,-1
 245 -532 l 1,82,-1
 240 -530 l 2,83,84
 202 -520 202 -520 174 -473 c 1,73,74
EndSplineSet
EndChar

StartChar: space_c_end
Encoding: 83 -1 83
Width: 461
VWidth: 1100
GlyphClass: 1
Flags: W
LayerCount: 2
Fore
SplineSet
20 1135 m 1,0,-1
 442 1135 l 1,1,-1
 442 1046 l 1,2,-1
 20 1046 l 1,3,-1
 20 1135 l 1,0,-1
EndSplineSet
EndChar

StartChar: prefix_c_end
Encoding: 84 -1 84
Width: 288
VWidth: 1100
GlyphClass: 2
Flags: W
LayerCount: 2
Fore
SplineSet
178 87 m 256,0,1
 163 71 163 71 144 71 c 256,2,3
 124 71 124 71 110 88 c 256,4,5
 95 104 95 104 95 128 c 256,6,7
 95 152 95 152 109 169 c 256,8,9
 123 185 123 185 142 185 c 0,10,11
 143 185 143 185 143 185 c 2,12,13
 143 185 143 185 144 185 c 2,14,15
 164 185 164 185 178 170 c 0,16,17
 193 153 193 153 193 128 c 256,18,19
 193 103 193 103 178 87 c 256,0,1
178 343 m 0,20,21
 164 328 164 328 144 328 c 256,22,23
 124 328 124 328 110 343 c 0,24,25
 95 360 95 360 95 385 c 256,26,27
 95 409 95 409 110 426 c 256,28,29
 125 442 125 442 144 442 c 0,30,31
 164 442 164 442 178 425 c 256,32,33
 193 408 193 408 193 385 c 256,34,35
 193 361 193 361 178 343 c 0,20,21
20 1135 m 1,36,-1
 268 1135 l 1,37,-1
 268 1046 l 1,38,-1
 20 1046 l 1,39,-1
 20 1135 l 1,36,-1
EndSplineSet
EndChar

StartChar: oaomo_c_end
Encoding: 85 -1 85
Width: 288
VWidth: 1100
GlyphClass: 2
Flags: W
LayerCount: 2
Fore
SplineSet
178 215 m 256,0,1
 163 199 163 199 144 199 c 256,2,3
 124 199 124 199 110 216 c 256,4,5
 95 232 95 232 95 256 c 256,6,7
 95 280 95 280 110 297 c 256,8,9
 125 314 125 314 144 314 c 256,10,11
 164 314 164 314 178 297 c 256,12,13
 193 280 193 280 193 256 c 256,14,15
 193 231 193 231 178 215 c 256,0,1
20 1135 m 1,16,-1
 268 1135 l 1,17,-1
 268 1046 l 1,18,-1
 20 1046 l 1,19,-1
 20 1135 l 1,16,-1
EndSplineSet
EndChar

StartChar: quote_c_end
Encoding: 86 -1 86
Width: 461
VWidth: 1100
GlyphClass: 2
Flags: W
LayerCount: 2
Fore
SplineSet
142 128 m 1,0,-1
 231 226 l 1,1,-1
 319 128 l 1,2,-1
 231 30 l 1,3,-1
 142 128 l 1,0,-1
142 385 m 1,4,-1
 231 483 l 1,5,-1
 319 385 l 1,6,-1
 231 286 l 1,7,-1
 142 385 l 1,4,-1
20 1135 m 1,8,-1
 442 1135 l 1,9,-1
 442 1046 l 1,10,-1
 20 1046 l 1,11,-1
 20 1135 l 1,8,-1
EndSplineSet
EndChar

StartChar: mamei_coda
Encoding: 87 988849 87
Width: 924
VWidth: 1100
GlyphClass: 2
Flags: W
AnchorPoint: "tone" 231 513 basechar 0
LayerCount: 2
Fore
SplineSet
693 20 m 2,0,1
 693 20 693 20 303 20 c 1,2,3
 318 38 318 38 331 66 c 0,4,5
 367 143 367 143 367 256 c 0,6,7
 367 317 367 317 327 360 c 0,8,9
 288 405 288 405 231 405 c 256,10,11
 174 405 174 405 134 360 c 0,12,13
 102 324 102 324 97 276 c 1,14,15
 97 276 97 276 21 276 c 1,16,17
 27 361 27 361 83 425 c 0,18,19
 145 493 145 493 231 493 c 256,20,21
 318 493 318 493 379 425 c 0,22,23
 442 356 442 356 442 256 c 0,24,25
 442 190 442 190 413 138 c 2,26,27
 413 138 413 138 397 108 c 1,28,-1
 693 108 l 2,29,30
 750 108 750 108 790 153 c 0,31,32
 828 195 828 195 828 253 c 0,33,34
 828 255 828 255 828 256 c 0,35,36
 828 316 828 316 790 360 c 0,37,38
 750 405 750 405 693 405 c 0,39,40
 636 405 636 405 596 360 c 0,41,42
 564 324 564 324 558 276 c 1,43,44
 558 276 558 276 483 276 c 1,45,46
 489 361 489 361 545 425 c 0,47,48
 607 493 607 493 693 493 c 256,49,50
 780 493 780 493 841 425 c 0,51,52
 904 356 904 356 904 256 c 256,53,54
 904 157 904 157 842 89 c 256,55,56
 779 20 779 20 693 20 c 2,0,1
EndSplineSet
Substitution2: "WithCartouche" mamei_coda_c
EndChar

StartChar: hiatus
Encoding: 90 988877 88
Width: 0
VWidth: 851
GlyphClass: 4
Flags: W
AnchorPoint: "vv" 462 -419 mark 0
LayerCount: 2
Fore
SplineSet
444 -429 m 0,0,1
 531 -429 531 -429 592 -497 c 0,2,3
 622 -531 622 -531 638 -571 c 1,4,5
 628 -564 628 -564 617 -557 c 0,6,7
 545 -517 545 -517 444 -517 c 0,8,9
 399 -517 399 -517 364 -546 c 1,10,11
 364 -546 364 -546 308 -485 c 1,12,13
 368 -429 368 -429 444 -429 c 0,0,1
EndSplineSet
Substitution2: "HiatusToHiatusDiphthong" hiatus_diphthong
EndChar

StartChar: mamei_coda_c
Encoding: 88 -1 89
Width: 924
VWidth: 1100
GlyphClass: 2
Flags: W
AnchorPoint: "tone" 231 513 basechar 0
LayerCount: 2
Fore
SplineSet
20 1135 m 1,0,-1
 1102 1135 l 1,1,-1
 1102 1046 l 1,2,-1
 20 1046 l 1,3,-1
 20 1135 l 1,0,-1
693 20 m 2,4,5
 693 20 693 20 303 20 c 1,6,7
 318 38 318 38 331 66 c 0,8,9
 367 143 367 143 367 256 c 0,10,11
 367 317 367 317 327 360 c 0,12,13
 288 405 288 405 231 405 c 256,14,15
 174 405 174 405 134 360 c 0,16,17
 102 324 102 324 97 276 c 1,18,19
 97 276 97 276 21 276 c 1,20,21
 27 361 27 361 83 425 c 0,22,23
 145 493 145 493 231 493 c 256,24,25
 318 493 318 493 379 425 c 0,26,27
 442 356 442 356 442 256 c 0,28,29
 442 190 442 190 413 138 c 2,30,31
 413 138 413 138 397 108 c 1,32,-1
 693 108 l 2,33,34
 750 108 750 108 790 153 c 0,35,36
 828 195 828 195 828 253 c 0,37,38
 828 255 828 255 828 256 c 0,39,40
 828 316 828 316 790 360 c 0,41,42
 750 405 750 405 693 405 c 0,43,44
 636 405 636 405 596 360 c 0,45,46
 564 324 564 324 558 276 c 1,47,48
 558 276 558 276 483 276 c 1,49,50
 489 361 489 361 545 425 c 0,51,52
 607 493 607 493 693 493 c 256,53,54
 780 493 780 493 841 425 c 0,55,56
 904 356 904 356 904 256 c 256,57,58
 904 157 904 157 842 89 c 256,59,60
 779 20 779 20 693 20 c 2,4,5
EndSplineSet
Substitution2: "TrimCartouche" mamei_coda_c_end
EndChar

StartChar: mamei_coda_c_end
Encoding: 89 -1 90
Width: 924
VWidth: 1100
GlyphClass: 2
Flags: W
AnchorPoint: "tone" 231 513 basechar 0
LayerCount: 2
Fore
SplineSet
20 1135 m 1,0,-1
 904 1135 l 1,1,-1
 904 1046 l 1,2,-1
 20 1046 l 1,3,-1
 20 1135 l 1,0,-1
693 20 m 2,4,5
 693 20 693 20 303 20 c 1,6,7
 318 38 318 38 331 66 c 0,8,9
 367 143 367 143 367 256 c 0,10,11
 367 317 367 317 327 360 c 0,12,13
 288 405 288 405 231 405 c 256,14,15
 174 405 174 405 134 360 c 0,16,17
 102 324 102 324 97 276 c 1,18,19
 97 276 97 276 21 276 c 1,20,21
 27 361 27 361 83 425 c 0,22,23
 145 493 145 493 231 493 c 256,24,25
 318 493 318 493 379 425 c 0,26,27
 442 356 442 356 442 256 c 0,28,29
 442 190 442 190 413 138 c 2,30,31
 413 138 413 138 397 108 c 1,32,-1
 693 108 l 2,33,34
 750 108 750 108 790 153 c 0,35,36
 828 195 828 195 828 253 c 0,37,38
 828 255 828 255 828 256 c 0,39,40
 828 316 828 316 790 360 c 0,41,42
 750 405 750 405 693 405 c 0,43,44
 636 405 636 405 596 360 c 0,45,46
 564 324 564 324 558 276 c 1,47,48
 558 276 558 276 483 276 c 1,49,50
 489 361 489 361 545 425 c 0,51,52
 607 493 607 493 693 493 c 256,53,54
 780 493 780 493 841 425 c 0,55,56
 904 356 904 356 904 256 c 256,57,58
 904 157 904 157 842 89 c 256,59,60
 779 20 779 20 693 20 c 2,4,5
EndSplineSet
EndChar

StartChar: hiatus_diphthong
Encoding: 91 -1 92
Width: 0
VWidth: 1100
GlyphClass: 4
Flags: W
AnchorPoint: "vv" 462 -161 mark 0
LayerCount: 2
Fore
SplineSet
313 -266 m 1,0,1
 313 -266 313 -266 257 -204 c 1,2,3
 316 -148 316 -148 393 -148 c 0,4,5
 480 -148 480 -148 541 -216 c 0,6,7
 571 -250 571 -250 587 -290 c 1,8,9
 577 -283 577 -283 566 -277 c 0,10,11
 493 -236 493 -236 393 -236 c 0,12,13
 350 -236 350 -236 313 -266 c 1,0,1
661 -290 m 1,14,15
 677 -250 677 -250 707 -216 c 0,16,17
 769 -148 769 -148 855 -148 c 2,18,19
 855 -148 855 -148 1066 -148 c 1,20,-1
 1066 -256 l 2,21,22
 1066 -354 1066 -354 1003 -425 c 0,23,24
 974 -457 974 -457 941 -473 c 1,25,26
 948 -461 948 -461 955 -446 c 0,27,28
 991 -367 991 -367 991 -256 c 2,29,30
 991 -256 991 -256 991 -236 c 1,31,-1
 855 -236 l 2,32,33
 737 -236 737 -236 661 -290 c 1,14,15
EndSplineSet
EndChar

